<?xml version="1.0" encoding="UTF-8"?>
<svg id="Layer_1" xmlns="http://www.w3.org/2000/svg" xmlns:xlink="http://www.w3.org/1999/xlink" viewBox="0 0 517 517">
  <defs>
    <style>
      .cls-1 {
        fill: url(#linear-gradient-2);
      }

      .cls-2 {
        fill: #8fb8ee;
      }

      .cls-3 {
        fill: #817350;
      }

      .cls-4 {
        fill: #fff;
      }

      .cls-5 {
        fill: #f9f4e9;
      }

      .cls-6 {
        fill: url(#linear-gradient-4);
      }

      .cls-7 {
        fill: #00c2ff;
      }

      .cls-8 {
        fill: red;
      }

      .cls-9 {
        fill: url(#linear-gradient-3);
      }

      .cls-10 {
        fill: #fec493;
      }

      .cls-11 {
        fill: #ffd3b0;
      }

      .cls-12 {
        fill: #8ed6e8;
      }

      .cls-13 {
        fill: #92bbf6;
      }

      .cls-14 {
        fill: #fdf4e9;
      }

      .cls-15 {
        fill: #9d9175;
      }

      .cls-16 {
        fill: #ffe7d3;
      }

      .cls-17 {
        fill: #715e35;
      }

      .cls-18 {
        fill: #d0edf4;
      }

      .cls-19 {
        fill: url(#linear-gradient);
      }

      .cls-20 {
        fill: #76b8ff;
      }
    </style>
    <linearGradient id="linear-gradient" x1="510.17" y1="227.99" x2="130.71" y2="154.85" gradientTransform="translate(-39.1 354.51) scale(1 -1)" gradientUnits="userSpaceOnUse">
      <stop offset="0" stop-color="#c7e6f2"/>
      <stop offset="1" stop-color="#4ab3d1"/>
    </linearGradient>
    <linearGradient id="linear-gradient-2" x1="301.36" y1="-56.99" x2="336.51" y2="-140.91" gradientTransform="translate(-39.1 354.51) scale(1 -1)" gradientUnits="userSpaceOnUse">
      <stop offset="0" stop-color="#4790c1"/>
      <stop offset="1" stop-color="#2d73ae"/>
    </linearGradient>
    <linearGradient id="linear-gradient-3" x1="221.1" y1="63.23" x2="228.28" y2="-48.59" gradientTransform="translate(-39.1 354.51) scale(1 -1)" gradientUnits="userSpaceOnUse">
      <stop offset="0" stop-color="#def2f7"/>
      <stop offset="1" stop-color="#b7e5f0"/>
    </linearGradient>
    <linearGradient id="linear-gradient-4" x1="278.17" y1="137.03" x2="261.98" y2="-18.59" gradientTransform="translate(-39.1 354.51) scale(1 -1)" gradientUnits="userSpaceOnUse">
      <stop offset="0" stop-color="#fffefe"/>
      <stop offset="1" stop-color="#ffe9d5"/>
    </linearGradient>
  </defs>
  <path class="cls-20" d="M258.5,506.93c137.2,0,248.43-111.23,248.43-248.43S395.7,10.07,258.5,10.07,10.07,121.3,10.07,258.5s111.22,248.43,248.43,248.43Z"/>
  <path class="cls-19" d="M482.64,185.7c-2.07-2.07-.28-11.2-12.36-16.01-1.03-.43-6.21-2.16-6.54-2.19-7-8.13-16.13-9.37-22.55,0-3.44-1.4-6.82-2.22-10.2-3.65.15-.58-.03-1.86,0-2.92,1.28-34.55-61.15-56.98-73.14-5.08-14.94-2.31-22.89,5.45-21.09,20.39-10.01-12.51-23.74-3.07-25.84,10.2-11.6-10.01-17.07,3.99-18.57,4.35-8.25-3.23-12.08,3.35-12.72,3.65-10.87,4.78-16.07,2.1-26.57,5.08,30.19.15,60.42-.18,90.61,0,38.53.24,115.84,2.68,148.1.73.58-.03,2.16-1.89,5.08,0l-1.1-8.74c4.2,3.62,6.33,9.31,3.66,14.91,4.17,3.9,1.19,6.12,1.46,8,.52,3.71,2.65,8.55,2.92,10.93.12,1.19-1.03,2.59-.73,5.81,0,.21,2.1,2.74,2.19,3.65.67,7.46-1.18,15.83.73,23.28-.45.58-1.37,1-1.46,1.83-2.4-1.07-5.39,1.86-7.64,1.46-1.95-.34-16.44-13.97-37.1-2.19-4.35,2.5-7,7.4-11.29,9.47-16.04-53.2-93.96-57.68-101.54,3.65-10.17-.91-20.12,3.26-26.94,10.93-14.15-5.02-27.3,3.62-32.75,16.74-10.47-7.27-24.41-8.49-34.94-.73-16.71,12.33-4.08,31.17-16.01,29.83-1.86-.21-14.46-12.51-32.02,9.47-15.83-17.14-33.54-6.82-35.67-7.27-7.7-10.14-18.29-6.51-19.66-7.27,5.33-29.52-20.61-47.57-48.39-42.58,2.92-9.22,2.47-19.66-.73-28.73,1.34-.21,3.01,1.43,3.29,1.46,7.09,1.1,128.87.18,143.36-.73,29.77-1.83,19.84-3.23-1.83-5.81l56.4-2.19c-5.08-2.8-11.05-.61-16.74-1.46-.76-.12-5.11-4.2-14.55-2.92-6-5.94-9.98-1.55-11.29-6.54-3.38-8.13-12.84-10.26-20.73-7.27-1.28-.43-3.44-15.16-21.82-5.81-2.56-.82,2.22-21.76-25.11-24.38,2.19-26.42-20.73-41.46-44.77-31.65-1.67-56.86-71.01-73.87-95.69-19.66-.85,1.86-3.17,9.77-4.02,10.2-.52.24-8.95.55-11.29,1.46.12-.3-.49-4.44,2.92-4.72.24-6.67,4.78-10.32,5.08-10.93,1.49-2.74,2.89-7.7,4.35-10.2,15.74-26.54,46.81-60.51,72.41-77.52.4-.24,1.8.24,2.19,0,1.37-.91,3.04-3.56,4.35-4.35,1.67-1.03,2.95.09,4.35-.73.4-.24,5.39-4.78,7.27-5.81,6.45-3.53,13.82-5.75,20.39-8.74,1.52-.7,2.71-2.83,2.92-2.92,8.7-3.77,25.32-8.58,34.94-10.93-2.28-1.92,1.07-2.25,1.46,0,6.21-4.17,15.07-1.98,20.39-5.81,18.29-.15,36.89-2.68,55.3-1.46,7.91.52,35.88,5.24,43.68,7.27,3.53.91,9.22,4.11,12.36,5.08,1.64.52,9.19-.64,13.09,5.08,8.8.61,20.12,6.64,28.4,10.93,1.77.91,2.74,2.8,2.92,2.92,3.04,1.67,8.77,1.7,11.66,6.54,5.94,1,11.69,7.58,15.28,10.2,1.89,1.37,6.6,3.26,8,4.35,4.66,3.65,5.08,8.04,6.54,5.08,8.43,10.38,20.3,19.84,28.73,30.19,4.08,4.99,6.97,14.43,13.09,16.01.85,5.6,4.56,7.85,5.08,13.09,8.44,5.45,9.65,17.14,10.2,18.2.39.76,1.8,0,2.19.73.15.3-.3,2.31.73,4.35.12.24,2.25.85,2.92,2.19.73,1.55-.79,2.77-.73,2.92.21.46,2.93,2.04,3.66,3.65.52,1.13.88,8.71,6.54,13.09-1.56,10.99,10.04,13.3-5.08,10.56Z"/>
  <path class="cls-4" d="M256.67,87.45c9.5-.82,10.32,7.79,15.28,8,25.29-11.47,19.94,10.14,20.73,12.02.24.55,4.96.97,7.64,8.37,8.98-7.03,18.05,1,21.82,1.46,2.59.3,9.47-1.34,17.47-.73,1.19.09,13.82,1.7,6.54,3.65-7.58,2.04-136.08-1.55-157.21,0-3.13-5.42,12.14-3.23,21.82-3.65,2.95-.79,3.04-6.48,12.72-10.56-1.13-10.74,12.63-19.33,20.03-9.83,3.07-3.41,8.31-8.31,13.09-8.74h.06Z"/>
  <path class="cls-16" d="M258.5,234.45c1.28,4.99,5.27.61,11.29,6.54,9.44-1.28,13.79,2.8,14.55,2.92,5.69.85,11.66-1.34,16.74,1.46l-56.4,2.19c-12.78-1.52-25.41-1.83-38.2-2.92-10.99-.94-30.59-7.3-29.46-.37-23.86-3.41-28.43-16.13-33.85-17.11-6.45-1.16-15.58,2.98-22.55,2.19-1.77-19.51-6.94-7.46-10.2-8-.91-.15-4.08-6.51-16.37-8.37,10.59-33.12-29.37-47.45-36.77-17.84-16.34-1.7-22.58,13.09-24.01,13.09-14.61-14.03-10.53,1.95-15.64,17.11.52,6.42-1.03,11.54.73,17.84-1.28,1.46-1.31,3.53-3.65,2.92.61-8.25-1.95-16.56.73-20.03,0-15.89,4.96-30.16,10.2-44.41-1.19-3.5,3.62-10.87,5.08-14.55,1.49-3.74-.09-4.17,0-4.35.58-1.34,3.71-4.02,4.35-5.45,2.34-.91,10.77-1.22,11.29-1.46.85-.4,3.17-8.31,4.02-10.2,4.47-.64,9.31,6.36,12.72,5.81,2.56-.4,25.05-22.22,47.3-4.35,15.92,12.78,10.59,33.82,16.74,34.21,1.55.09,17.68-7.24,20.73,15.64,14.85.46,17.56,10.74,18.57,11.29,1.7.91,10.26-3.56,17.47,2.92,11.08-7.7,29.62-1.4,29.1,13.09,16.37-1,16.19,17.56,17.47,18.2,9.13-4.41,32.35,2.28,28.03-8v-.03Z"/>
  <path class="cls-11" d="M244.65,247.57c21.64,2.59,31.59,3.99,1.83,5.81-14.49.88-136.3,1.83-143.36.73-.24-.03-1.92-1.67-3.29-1.46-8.55-24.35-46.72-44.68-77.86-13.09-1.19,1.19-2.53,2.37-3.65,3.65-1.77-6.3-.21-11.38-.73-17.84,5.11-15.16,1.03-31.14,15.64-17.11,1.43,0,7.67-14.79,24.01-13.09,7.4-29.65,47.33-15.28,36.77,17.84,12.3,1.86,15.46,8.22,16.37,8.37,3.26.55,8.4-11.51,10.2,8,6.97.79,16.1-3.35,22.55-2.19,5.42.97,9.98,13.7,33.85,17.11-1.13-6.94,18.48-.58,29.46.37,12.81,1.1,25.41,1.37,38.2,2.92v-.03Z"/>
  <path class="cls-4" d="M258.5,234.45c4.35,10.29-18.87,3.59-28.03,8-1.25-.64-1.1-19.21-17.47-18.2.52-14.49-18.02-20.79-29.1-13.09-7.18-6.45-15.77-2.01-17.47-2.92-1-.52-3.71-10.84-18.57-11.29-3.04-22.89-19.18-15.55-20.73-15.64-6.15-.4-.82-21.43-16.74-34.21-22.25-17.84-44.74,3.96-47.3,4.35-3.44.55-8.25-6.48-12.72-5.81,24.71-54.21,94.02-37.22,95.69,19.66,24.01-9.77,46.93,5.23,44.77,31.65,27.33,2.62,22.52,23.56,25.11,24.38,18.41-9.34,20.58,5.42,21.82,5.81,7.88-2.98,17.38-.85,20.73,7.27v.03Z"/>
  <path class="cls-10" d="M430.96,160.95c-.03,1.07.15,2.34,0,2.92-.58,2.1-11.69,7.43-10.56,21.82,19.3-17.93,24.56-2.4,30.56-1.46,11.99,1.89,10.41-15.98,19.3-14.55,12.11,4.81,10.29,13.94,12.36,16.01,4.23,1.8,9.5,2.74,13.09,5.81l1.1,8.74c-2.93-1.89-4.51-.03-5.08,0-32.26,1.95-109.57-.49-148.11-.73,4.84-12.91,24.9-27.18,36.77-14.55,6.33,1.55,19.72-8.8,31.29-5.08,14.73-31.26-17.53-29.31-1.83-34.21,10.38,3.38,15.28,5.14,21.09,15.28h.03Z"/>
  <path class="cls-16" d="M409.86,145.67c-15.7,4.9,16.56,2.95,1.83,34.21-11.6-3.71-24.96,6.67-31.29,5.08-11.84-12.63-31.9,1.64-36.77,14.55-30.19-.18-60.42.15-90.61,0,10.5-2.98,15.67-.3,26.57-5.08.85,0,1.49,1.43,1.83,1.46,8.64.58,45.9-5.23,61.15-4.35,3.2-11.63,15.37-20.7,27.67-19.66,1.98-1.28.67-3.62,1.1-5.08,4.02-13.79,12.36-26.97,28.73-24.75,1.7.24,7.03,2.74,9.83,3.65l-.03-.03Z"/>
  <path class="cls-4" d="M430.96,160.95c-5.81-10.17-10.74-11.9-21.09-15.28-2.8-.91-8.13-3.41-9.83-3.65-16.38-2.22-24.75,10.96-28.73,24.75-2.59-.55-.76,2.86-1.83,3.65-2.43,1.77-22.37-12.6-31.29,9.47-18.93-9.34-29.46,20.27-27.3,6.54,2.1-13.27,15.83-22.68,25.84-10.2-1.77-14.94,6.15-22.68,21.09-20.39,11.99-51.89,74.42-29.43,73.14,5.08v.03Z"/>
  <path class="cls-16" d="M371.3,166.79c-.43,1.49.88,3.84-1.1,5.08-12.27-1.03-24.44,8.04-27.67,19.66-15.22-.88-52.5,4.96-61.15,4.35-.33,0-.97-1.46-1.83-1.46.67-.27,4.5-6.88,12.72-3.65,1.49-.37,6.94-14.37,18.57-4.35-2.19,13.73,8.34-15.92,27.3-6.54,8.92-22.07,28.85-7.7,31.29-9.47,1.07-.76-.76-4.2,1.83-3.65l.03.03Z"/>
  <path class="cls-16" d="M441.15,167.52c.27.12,3.32,3.62,4.72,3.65,4.72-3.26,12.14-4.2,17.83-3.65.34.03,5.51,1.77,6.54,2.19-8.88-1.43-7.3,16.47-19.3,14.55-6-.94-11.26-16.47-30.56,1.46-1.13-14.43,9.98-19.75,10.56-21.82,3.38,1.43,6.76,2.25,10.2,3.65v-.03Z"/>
  <path class="cls-14" d="M463.7,167.52c-5.69-.55-13.12.4-17.83,3.65-1.43,0-4.44-3.53-4.72-3.65,6.45-9.37,15.55-8.13,22.55,0Z"/>
  <path class="cls-1" d="M405.51,429.52c9.16-.49,18.11,1.1,26.21,5.45-7.37,5.91-14.03,12.75-21.46,18.57-.61.49-1.4-.79-1.46-.73-.73.58,0,1.61-.73,2.19-7.15,5.41-14.31,9.04-19.66,13.82-14.24,7.09-29.28,15.95-43.68,21.09-71.62,25.75-154.25,17.59-218.69-22.55,8.8-18.51,36.65-16.83,49.12-2.93,11.08-5.08,15.92,1.19,18.2.73,15.16-19.08,44.47-17.99,61.15-1.46,20.61-18.38,33.54-8.98,37.1-9.46,16.71-13.21,27.33-7.3,46.57-9.47,27.27,12.33,17.81-2.5,38.56.73,3.29-4.87,11.87-11.87,17.11-13.82.7-.24,8.7-2.1,9.47-2.19.7-.06,1.46.03,2.19,0v.03Z"/>
  <path class="cls-9" d="M17.59,286.87c20.45,8.16,16.83,30.19,19.3,30.56,14.15-12.17,30.77-4.17,37.1,11.66,3.29,2.89,24.93,1.43,29.83,29.83,10.96-3.93,21.31,0,27.67,9.47,2.25-.61,3.26-4.17,7.64-7.27,2.22-1.58,8.25-5.36,10.2-5.81,17.35-4.2,35.19,6.15,38.2,24.01,4.14-3.14,8.95-.27,13.45-.73,8.37,4.14,11.87,11.35,12.72,11.66,8.1-.97,14.09,2.74,15.28,2.92,2.71.4,10.71-5.08,18.93,5.08,20.94-.24,13.42-5.81,20.39-10.2,1.8-1.13,6.27-2.28,8.37-2.19,2.5.12,3.47,0,3.65,0,.12,0-.03,2.01,1.1,2.19,12.54,1.86,15.19-5.84,30.56,5.81,4.84.18,8.16-11.17,24.74-8,8.07,1.55,13.91,8.25,19.3,13.82l-1.83,1.46c-25.99-1-170.6,1.77-179.39,0-1-.21-1.92.43-2.92-1.1-14.73-28.61-23.74-15.74-44.04-3.29-1.8-.27-10.59-23.77-29.1-10.93l-10.2-4.35c-2.98-22.01-28.85-34.79-37.1-10.2-.64.24-6.3-2.62-12.72,1.46-13.79-26.78-23.1-56.64-24.01-86.59.82.15,2.19.46,2.92.73h-.03Z"/>
  <path class="cls-18" d="M504.46,259.93c-1.1,10.53-1.74,21.06-2.19,31.65-5.42,9.77-3.07,29.98-10.2,36.4,2.71,8.49-12.14,37.74-8.73,18.57.85-1.16.92-1.46.73-2.92,1.19-4.44,5.78-12.54,4.72-13.09-7.16-.64-12.3,4.87-16.74,9.47-15.43-1.8-28.37,5.14-30.19,21.46-17.96,8.86-15.86,2.37-22.19,1.1-18.23-3.74-28.7,14.88-29.83,30.56-1.49,1.16-18.63-11.93-33.85,6.54-5.39-5.57-11.23-12.3-19.3-13.82-16.59-3.17-19.91,8.19-24.74,8-15.37-11.66-18.02-3.96-30.56-5.81-1.13-.18-.97-2.16-1.1-2.19,3.93-13.64,18.41-15.22,28.03-5.81,8.25-11.2,25.66-12.39,34.21-.73,2.16.21,10.26-15.34,26.21-6.54,1.1-18.05,14.7-31.84,32.75-24.01,2.13-17.2,16.22-28.09,32.75-21.09,3.47-12.21,13.57-15.19,14.18-17.11-1.7-17.74,6.48-24.81,6.54-26.21.09-2.16-6.33-5.36-6.54-5.81-.3-.64-.3-7.94-.73-9.1.88.09.67-.7.73-.73,4.29-2.04,6.91-6.97,11.29-9.47,20.7-11.78,35.19,1.86,37.1,2.19,2.25.4,5.24-2.53,7.64-1.46v-.03Z"/>
  <path class="cls-12" d="M393.85,431.69c-5.23,1.95-13.82,8.98-17.11,13.82-20.76-3.2-11.29,11.6-38.56-.73-19.24,2.16-29.86-3.74-46.57,9.47-3.59.49-16.53-8.92-37.1,9.46-16.68-16.53-45.99-17.65-61.15,1.46-2.28.46-7.12-5.81-18.2-.73-12.48-13.91-40.33-15.61-49.12,2.93-16.07-10.01-30.07-21.89-43.68-34.94-.06-.46.88-1.43,1.1-1.46,15.31-2.62,268.45,1.46,310.39.73Z"/>
  <path class="cls-12" d="M405.51,429.52c-.73.03-1.46-.06-2.19,0l-323.12-.73c-2.95-.67-13.45-13-14.91-16.74,126.16-.46,252.23-4.08,378.45-2.92l-2.19,6.54c-90.73-1.16-181.68,4.23-272.2-2.92v1.46c88.81,5.75,178.06,4.84,267.08,3.65.64,4.32-4.32,6.12-5.08,10.2-10.2,1.55-24.5-1.61-25.84,1.46Z"/>
  <path class="cls-12" d="M484.1,343.63c-.27,1.07-.52,1.77-.73,2.92-6.24,8.43-5.42,9.95-8.73,20.03-5.24,4.08-7.64,9.8-9.47,16.01-7.42,5.63-8.37,15.19-14.55,20.73.15-.55-.06-1.46,0-2.19,0-.12,1.55-.15.37-2.19-.76.52-.15,1.55-.37,2.19-.55,1.7-.91,3.53-1.83,5.08-17.38-1.67-35.37-1.46-53.84-1.46-.27,0-1.19,1.46-1.46,1.46-45.81-.03-91.74-2.19-137.54-2.19-24.08.85-48.27.76-72.41.73.21-2.83-10.38-.91-17.84-1.46,2.22-2.19,9.01,1.13,9.1-2.19,8.8,1.77,153.4-1,179.39,0l1.83-1.46c15.22-18.51,32.35-5.39,33.85-6.54,1.13-15.68,11.6-34.3,29.83-30.56,6.33,1.31,4.23,7.76,22.19-1.1,1.83-16.34,14.76-23.25,30.19-21.46,4.44-4.6,9.59-10.07,16.74-9.47,1.03.58-3.53,8.64-4.72,13.09v.03Z"/>
  <path class="cls-12" d="M174.8,401.13c-.09,3.32-6.88,0-9.1,2.19,7.43.55,18.05-1.37,17.84,1.46-16.98-.03-114.53-1.89-120.44-.73-.67.12-2.37,1.83-3.29,2.19-3.65-3.47-18.05-27.51-21.09-33.48,6.45-4.08,12.08-1.22,12.72-1.46,8.28-24.62,34.15-11.81,37.1,10.2l10.2,4.35c18.51-12.84,27.3,10.65,29.1,10.93,20.3-12.45,29.28-25.32,44.04,3.29.97,1.52,1.89.88,2.92,1.1v-.03Z"/>
  <path class="cls-12" d="M450.62,403.32c-.24.91.46,3.04-.37,3.65h-204.51c-60.08,3.1-120.44,1.49-180.49,2.92-3.96-.88-3.5-1.77-5.45-3.65.91-.37,2.62-2.04,3.29-2.19,5.9-1.19,103.45.7,120.44.73,24.14.06,48.33.15,72.41-.73,45.81,0,91.77,2.13,137.54,2.19.27,0,1.19-1.46,1.46-1.46,18.48,0,36.46-.21,53.84,1.46.88-1.58,1.28-3.41,1.83-5.08-.06.7.15,1.64,0,2.19v-.03Z"/>
  <path class="cls-18" d="M403.32,429.52c-.76.09-8.77,1.92-9.47,2.19-41.94.73-295.09-3.32-310.4-.73-.21.03-1.16,1-1.1,1.46-1.19-1.13-2.74-1.37-2.19-3.65l323.12.73h.03Z"/>
  <path class="cls-18" d="M276.67,385.85c-2.1-.12-6.57,1.07-8.37,2.19-6.97,4.38.55,9.95-20.39,10.2-8.22-10.2-16.19-4.69-18.93-5.08-1.19-.18-7.18-3.87-15.28-2.92-.85-.3-4.35-7.52-12.72-11.66,10.93-5.69,16.44-1.61,25.48,0,.73.12,7.21-2.5,13.45,3.65,5.94,1.98,7.61-11.35,22.55-9.47,6.73.85,11.93,7.12,14.18,13.09h.03Z"/>
  <path class="cls-4" d="M483.37,346.55c.21-1.16.46-1.86.73-2.92.18,1.46.12,1.77-.73,2.92Z"/>
  <path class="cls-12" d="M450.62,401.13c.21-.64-.4-1.64.37-2.19,1.19,2.04-.37,2.07-.37,2.19Z"/>
  <path class="cls-16" d="M149.32,355.29c-1.95.46-7.97,4.26-10.2,5.81-2.65-16.22-22.89-14.73-24.38-15.28-2.1-.76-23.74-21.73-39.29-17.47-2.77-.91-5.75-43.1-32.02-31.29-3.62-10.23-26.51-24.32-25.84-10.2-.7-.27-2.1-.58-2.92-.73,0-.76-1.03-1.25-1.46-1.83,2.83-.73,1.92-22.83,1.46-27.67-.06-.7-2.77,1.58-2.19-5.08.64-1.25,2.13-4.9,2.19-5.45,2.31.61,2.34-1.46,3.65-2.92,1.13-1.25,2.47-2.44,3.65-3.65,15.46,6.7,34.45,3.77,45.84,19.3,9.59,13.03,4.35,27.09,5.08,28.4,21.43-.94,20.12,19.05,21.46,20.03,18.72-8.37,32.72,10.74,30.19,28.03.58,1.61,21.03.7,24.75,20.03l.03-.03Z"/>
  <path class="cls-10" d="M447.7,269.4c.43,1.16.43,8.43.73,9.1.21.46,6.63,3.68,6.54,5.81-.06,1.37-8.25,8.46-6.54,26.21-.61,1.92-10.74,4.9-14.18,17.11-16.53-6.97-30.62,3.9-32.75,21.09-18.05-7.82-31.65,5.97-32.75,24.01-15.95-8.8-24.05,6.76-26.21,6.54-8.52-11.66-25.96-10.47-34.21.73-9.62-9.4-24.08-7.79-28.03,5.81-.18,0-1.16.12-3.65,0-2.25-5.97-7.46-12.27-14.18-13.09-14.94-1.89-16.65,11.44-22.55,9.47-6.24-6.15-12.75-3.5-13.45-3.65-1.28-4.02,2.71-4.11,5.81-4.35.73-.06,9.19,1.7,10.56,1.46,1.64-.3,10.56-12.14,31.29-3.65,10.59-14.73,28.52-15.43,42.22-4.35,6.06-13.09,22.25-22.74,36.4-17.47,1.67-.58,1.8-20.61,24.38-21.46,1.28-22.31,17.5-22.52,18.2-24.01-2.1-13.33,7.46-25.99,21.46-25.11,9.65.61,15.37,9.62,16.38,6.91,2.56-15.37-3.99-20.88-5.08-25.11-.82-3.2-2.56-15.13,1.1-15.28,4.35-.21,14.67,12.81,18.57,23.28h-.03Z"/>
  <path class="cls-11" d="M139.13,361.1c-4.38,3.13-5.39,6.67-7.64,7.27-6.33-9.47-16.68-13.39-27.67-9.47-4.9-28.4-26.54-26.97-29.83-29.83-6.33-15.83-22.95-23.83-37.1-11.66-2.47-.4,1.19-22.43-19.3-30.56-.67-14.12,22.19-.06,25.84,10.2,26.27-11.81,29.25,30.38,32.02,31.29,15.55-4.26,37.22,16.71,39.29,17.47,1.49.55,21.73-.94,24.38,15.28Z"/>
  <path class="cls-16" d="M428.06,261.39c1.1,4.23,7.64,9.74,5.08,25.11-1,2.71-6.73-6.3-16.38-6.91-14.03-.88-23.56,11.78-21.46,25.11-.7,1.49-16.92,1.7-18.2,24.01-22.58.85-22.71,20.88-24.38,21.46-14.15-5.27-30.31,4.38-36.4,17.47-13.7-11.05-31.62-10.35-42.22,4.35-20.76-8.49-29.65,3.35-31.29,3.65-1.37.24-9.8-1.52-10.56-1.46,5.36-13.24,20.91-16.56,33.85-13.82,2.1-.61,6.88-23.8,36.4-14.55,5.97-4.23,11.78-8.86,18.93-10.93,1.77-21.21,20.79-20.67,21.46-22.19-.79-15.01,10.38-24.01,24.75-24.01-1.55-29.55,34.3-47.72,57.13-29.46,1.95,1.55.27,4.17,3.29,2.19v-.03Z"/>
  <path class="cls-6" d="M99.83,252.66c3.2,9.07,3.65,19.51.73,28.73,27.82-4.99,53.72,13.06,48.39,42.58,1.37.76,11.96-2.86,19.66,7.27,2.1.46,19.85-9.86,35.67,7.27,17.56-21.98,30.16-9.68,32.02-9.47,11.93,1.34-.7-17.5,16.01-29.83,10.5-7.76,24.47-6.54,34.94.73,5.45-13.12,18.6-21.73,32.75-16.74,6.82-7.67,16.74-11.81,26.94-10.93,7.58-61.3,85.5-56.86,101.54-3.65-.06,0,.18.82-.73.73-3.9-10.47-14.18-23.5-18.57-23.28-3.65.18-1.92,12.08-1.1,15.28-3.01,1.98-1.31-.61-3.29-2.19-22.83-18.26-58.68-.06-57.13,29.46-14.37,0-25.54,9.01-24.74,24.01-.67,1.55-19.69.97-21.46,22.19-7.15,2.07-12.97,6.7-18.93,10.93-29.49-9.22-34.3,13.94-36.4,14.55-12.94-2.74-28.49.58-33.85,13.82-3.1.24-7.09.34-5.81,4.35-9.04-1.61-14.55-5.69-25.48,0-4.5.46-9.31-2.4-13.45.73-3.01-17.87-20.85-28.25-38.2-24.01-3.71-19.33-24.17-18.41-24.75-20.03,2.5-17.29-11.47-36.37-30.19-28.03-1.34-.97,0-20.94-21.46-20.03-.73-1.28,4.47-15.34-5.08-28.4-11.38-15.49-30.38-12.6-45.84-19.3,31.17-31.56,69.3-11.26,77.86,13.09l-.06.15Z"/>
  <path class="cls-16" d="M315.63,299.95c1.83-.15,9.25-.24,10.2,0,5.54,1.4-2.01,2.19-1.1,8.37-1,1.52-12.94,4.6-17.84,20.03-6.94-2.43-13.7-.79-20.73-.37.91-15.77,14.49-26.69,29.46-28.03Z"/>
  <path class="cls-5" d="M428.46,137.21c-.52.18-1,.7-1.55.06.49-.61,1-.73,1.55-.06Z"/>
  <path class="cls-15" d="M433.3,249.64c-3.1-1.58-6.03-3.47-8.89-5.45-1.49-1.03-3.04-1.89-4.96-1.46.06-.43.06-.91.24-1.28,3.56-7.24,4.84-14.97,5.27-22.92,1.03-.52.85-1.46.88-2.34.18-7.15-.7-14.21-2.47-21.15-.12-.43-.15-.88-.15-1.31,0-.21.21-.43.21-.49,4.54,2.1,8.22,5.14,10.96,9.28.64.94.97,1.8,1.07,2.92.3,4.35.73,8.67,1.07,13.03.06.88,0,1.86,1.19,2.07-.09.61-.18,1.25-.24,1.86-.4,4.23-1.37,8.58,2.4,11.99.27.24.27.82.43,1.25v2.01c-.15.76-.3,1.52-.49,2.28-.09.09-.15.21-.15.34-3.35,1.25-3.41,4.93-5.3,7.24-.46.55-.55,1.49-1.1,2.1l.03.03ZM432.29,239.6c.09,1.13-.18,2.74,1.34,3.71.55.37,1.34.4,1.74-.12.85-1.22,1.77-2.4,1.37-4.11-.37-1.58-.52-3.65-2.43-3.62-2.16.03-1.77,2.22-2.01,4.14Z"/>
  <path class="cls-13" d="M425.54,277.58s-.21.15-.3.24c-.03-.06-.12-.18-.12-.18.09-.09.21-.18.3-.24.03.06.09.12.12.18Z"/>
  <path class="cls-2" d="M454.61,217.17s0-.27.12-.37c.03.12.06.21.12.33h-.21l-.03.03Z"/>
  <path class="cls-2" d="M454.88,216.28c0-.34.12-.55.46-.61-.15.21-.3.4-.46.61Z"/>
  <path class="cls-5" d="M65.93,227.27h-2.25v.09h2.28s-.03-.06-.06-.09h.03Z"/>
  <path class="cls-17" d="M432.29,239.6c.21-1.92-.15-4.11,2.01-4.14,1.92,0,2.07,2.04,2.43,3.62.43,1.74-.52,2.92-1.37,4.11-.37.55-1.16.49-1.73.12-1.52-1-1.25-2.62-1.34-3.71Z"/>
  <path class="cls-5" d="M22.1,330.97c.88.03,32.72-.55,33.6-.55h108.72c2.5,0,4.96-.27,7.46-.43,3.04.76,5.6-.24,7.82-2.31,3.17-2.98,7.3-3.62,11.08-1.37,13.03,7.67,17.68,20.79,21.85,34.15.46,1.43-.55,1.7-1.73,1.43-8.16-1.77-16.56-1.49-24.78-2.71-6-.88-6.51-1.7-3.8-7.18.03-.09.09-.15.12-.24,1.25-1.95.33-2.59-1.58-2.65-5.81-.18-11.63-.61-17.44-.49-8.77.18-17.53.43-26.24,1.22-4.6.43-9.13-.58-13.64-.09-8.31.91-16.62.18-24.93.88-5.33.46-10.74-.4-16.07-.27-9.83.21-49.79.09-59.63.91-7.21-19.45-1.16-4.08-.82-20.33v.03Z"/>
  <path class="cls-17" d="M221,368.92c-1.34,3.47-3.87,5.81-7.21,7.15-10.32,4.14-20.73,3.68-31.14.24-.06-1.03-2.59-1.58-.91-2.68,1.31-.88,3.29-1.86,4.81-1.19,2.62,1.16,4.87.27,7.24-.4,1.16-.34,2.28-.27,3.44-.06,1.95.34,3.9.55,5.84.76.88.09,1.64-.21,1.8-1.19.12-.73-.55-.85-1.03-.94-4.66-.67-9.28-1.77-14.06-.37-2.1.61-4.93,1.52-6.48.61-3.14-1.8-5.11-.82-7.34,1.07-.15,0-.27-.09-.4-.21-.21-1.1-.43-2.22-1.13-3.13.06-.67-.3-1-.94-1.07l-.06-.06c-.15-1.49-1.13-2.86.15-4.47.64-.82-.61-1.13-1.43-1.25-2.95-.4-5.81,1.34-8.83.4-.46-.15-1.19.15-1.22.79,0,.73.67.7,1.19.7,1.86.09,3.74-.12,5.57.49,1.43.49,1.61,1,.64,2.28-.94,1.25-2.65,1.37-3.5,2.68-1.28.46-2.65.24-3.96.3-.61-.46-1.28-.24-1.95-.21-.94-.15-1.86-.33-2.71.33-3.99.18-7.97.37-11.93.52-1.25-.64-2.5-.73-3.71.09-2.34.49-4.72.49-7.12.34-2.47-.52-4.93-.67-7.37.15-7.85.67-15.74.55-23.62.76-8.4.24-16.8.88-25.2,1.19-8.49.3-37.62-1.03-46.14-1.22,0-4.84-6.54-8.37-6.54-13.21,1.25-.12,29.74.15,30.92.37,5.48,1,10.99.09,16.5.33,5.08.21,10.14.18,15.22.76,4.54.52,9.34-.64,14.03-.76,15.01-.4,30.04-.12,45.02-1.58,3.71-.37,7.52-.06,11.26-.06,1.43,0,2.86-.58,4.14-.61,4.47-.18,8.92.46,13.33,1.31.37.06.64.61.94.91v1.64c-.52.88.06,1.52.7,1.7,3.44,1,6.88,2.43,10.35,2.92,4.14.58,8.46,1.28,12.75.24,1.43-.33,3.04-.09,4.54.15,3.04.52,6.12.61,9.07.12,2.59-.43,4.47.49,6.39,1.8,0,.49,0,1,.03,1.49l.06.06Z"/>
  <path class="cls-15" d="M177.17,360.46v-1.64c1.07-.97.37-2.43.97-3.53,1.1-1.92-.21-1.92-1.49-1.86-1.7.09-3.44.67-5.05.43-9.56-1.52-19.05.58-28.58.43-4.9-.09-9.77.94-14.7.76-2.4-.09-4.84-.52-7.21-.27-6.15.67-12.3.49-18.44.7-16.56.61-62.52-1.03-79.04.21,0-1.61-.73-3.35-.73-4.96,9.8-.82,49.79-.12,59.63-.34,5.33-.12,10.74.73,16.07.27,8.31-.7,16.65,0,24.93-.88,4.54-.49,9.04.52,13.64.09,8.71-.79,17.5-1.06,26.24-1.22,5.81-.12,11.63.3,17.44.49,1.92.06,2.8.7,1.58,2.65-.06.06-.09.15-.12.24-2.71,5.48-2.19,6.3,3.8,7.18,8.22,1.22,16.62.94,24.78,2.71,1.19.24,2.16,0,1.73-1.43-4.17-13.36-8.83-26.48-21.85-34.15-3.77-2.22-7.91-1.58-11.08,1.37-2.19,2.07-4.75,3.07-7.82,2.31.85-.49,1.19-1.25,1.19-2.19,0-2.07,1.07-3.44,2.74-4.47,7.43-3.47,15.34-3.93,23.34-3.83,2.59,0,5.11.91,7.73.55,2.13.55,4.26,1.13,6.39,1.67.67,1.31-.03,3.32,1.58,4.05,1.4.64,1.77,1.7,1.95,2.95.85,5.69,3.13,11.17,2.47,17.11-.09.76.12,1.61.33,2.37.21.73.27,1.8,1.4,1.61.88-.15.85-1.03.88-1.73.03-.7,0-1.43,0-2.16,0-6.97.24-13.94-.46-20.91.85-.52.76-1.95,2.01-2.1-.52,1.64-.18,3.29-.12,4.96.27,11.08.15,22.19-.67,33.24-.09,1.43-.15,2.86-.3,4.29-.12,1.28,0,2.71-1.37,3.5,0-.49,0-1-.03-1.49.82-1.4.73-2.8-.43-3.93-.97-.94-6.12-1.49-6.7-.55-1.92,2.98-4.6,1.8-7,1.46-6.45-.91-12.97-1.13-19.39-2.28-3.41-.61-6.85-1.19-10.29-1.67h.06Z"/>
  <path class="cls-3" d="M22.89,354.89c16.56-1.28,63.25,1.19,79.77.58,6.15-.24,12.3-.06,18.44-.7,2.37-.24,4.81.18,7.21.27,4.93.18,9.8-.85,14.7-.76,9.53.18,19.02-1.92,28.58-.43,1.61.24,3.35-.3,5.05-.43,1.25-.06,2.56-.06,1.49,1.86-.61,1.1.06,2.56-.97,3.53-.3-.3-.58-.85-.94-.91-4.41-.82-8.86-1.46-13.33-1.31-1.28.06-2.74.61-4.14.61-3.77,0-7.55-.3-11.26.06-14.97,1.46-30.01,1.19-45.02,1.58-4.69.12-9.5,1.28-14.03.76-5.11-.58-10.14-.58-15.22-.76-5.48-.24-10.99.67-16.5-.33-1.19-.21-31.87.12-33.12.24,0-.88-.73-2.95-.73-3.87Z"/>
  <path class="cls-5" d="M60.11,225.87c.52-11.99,3.29-23.53,7.34-34.76,1.77-4.9,4.14-9.53,6.48-14.15,3.5-6.88,8.92-10.59,16.68-10.62,4.14,0,8.25-.79,12.36,1.25,2.65,1.31,5.84-.06,8.74-.33,15.13-1.43,30.25-3.23,45.38-4.5,11.84-1,23.68-2.25,35.55-3.14,7.88-.61,15.8-1.25,23.65-2.28,9.53-1.25,19.11-2.01,28.67-2.95,12.3-1.19,24.56-2.37,36.86-3.56,8-.76,16.04-1.55,24.05-2.34,11.93-1.16,23.86-2.37,35.79-3.47,6.15-.58,12.27-1.19,18.44-1.52,6.3-.33,12.54-1.61,18.84-1.98,6.88-.43,13.64-1.55,20.51-2.1,8.22-.64,16.41-1.52,24.59-2.25.97-.09,1.95.06,2.95.09-2.16,1.77-4.9,2.37-7.24,3.77-8.95,5.39-16.77,12.17-24.56,19.02-4.35,3.8-8.64,7.67-12.39,12.08-5.27,4.81-10.01,10.04-14.58,15.49-1.67.27-1.98,1.77-2.65,2.92-.52.67-1.07,1.31-1.58,1.98-1.67,1.37-3.01,2.98-5.6,3.23-18.11,1.55-36.22,3.32-54.33,5.05-21.34,2.04-42.64,4.11-63.95,6.12-16.5,1.55-33.02,3.01-49.52,4.5-21.06,1.95-42.12,3.9-63.19,5.84-18.48,1.67-36.95,3.35-55.43,4.93-2.25.18-2.8,1.1-2.28,3.07-3.13.4-6.27,1-9.47.55l-.12.06Z"/>
  <path class="cls-3" d="M206.91,320.07c-2.62.33-5.14-.52-7.73-.55-8-.09-15.92.4-23.35,3.83-.73-1.95-2.07-3.74-1.73-6.03.76.18,1.92-.06,2.22.7,1.22,3.35,3.23,1.95,5.24,1.03.7-.33,1.52-.52,2.31-.58,4.35-.21,8.71-.43,13.06-.55,4.26-.12,8.25-4.57,7.76-8.8-.3-2.56-.7-5.11-.97-7.7-.58-5.14-4.87-9.89-9.95-10.87-.49-.09-1.13-.09-1.55.15-2.34,1.28-5.2,2.13-6.82,4.05-2.83,3.29-6,6.36-8.28,10.14-1,1.64-1.43,3.62-2.92,4.99-.3-1.98.55-3.65,1.28-5.39.49-1.19,1.95-2.4,1.22-3.59-.82-1.34-2.47-.18-3.74-.21-.27,0-.55.09-.79.06-2.71-.37-5.05.4-7.09,2.19.03-1.16-.7-1.67-1.61-2.22-4.54-2.68-9.31-4.81-14.15-6.76-8.71-3.5-17.2-7.4-25.51-11.72-3.14-1.61-4.9-4.11-5.87-7.52-.91-3.2-1.34-6.45-2.25-9.62-1.77-5.94-2.59-12.02-2.8-18.17.82.3.88.97,1.03,1.7,1.25,6.76,1.95,13.64,3.77,20.27,1.07,3.83,1.25,8.22,4.69,10.84,3.59,2.77,7.97,4.26,12.3,5.66,1.58.52,4.11-1.83,3.53-3.01-1.03-2.13.33-2.01,1.67-2.07,6.33-.4,12.51-1.64,18.72-2.77.43-.06,1.07-.27,1.16-.55,1.03-2.98,3.65-2.34,5.84-2.56,4.17-.4,8.37-.7,12.54-1,4.81-.33,9.62-1.25,14.4-1.31,4.6-.06,9.07-.49,13.57-1.03,1.55-.18,3.23-.18,5.36-1.28-10.11.49-19.45.73-28.79,1.25-10.01.55-20.09.12-30.1.09-.82,0-2.04.43-2.25-.79-.18-.97,1-1.1,1.61-1.55,3.47-2.47,7.88-1.98,11.63-3.96,2.56-1.34,5.9-1.1,8.07-3.56.49-.55,1.22-.79,1.98-.61,2.53.58,5.11.18,7.67,1.07,2.1.73,4.69.79,6.85-.3,2.01-1.03,3.77-1.86,5.75.06.73.73,1.83.3,2.83.12,2.47-.49,4.47-2.22,7.09-2.34,6.85-.27,13.7-.73,20.58-1.03,1.22-.06,2.25-.37,3.29-.97,1.86-1.13,3.59-2.77,6.12-1.46.64.33,1.4-.24,1.92-.73,2.07-1.92,4.57-2.34,7.24-2.22,1.89.09,3.71-.27,5.54-.73,3.71-.94,7.37-2.07,10.96-3.44,4.38-1.64,9.22-.43,13.91-1.98,3.83-1.28,8.43-1.46,12.72-.33.91.24,1.95-.15,2.89-.27,3.59-.4,7.15-.79,10.62-1.8.94-.27,1.89.3,2.83.58,4.05,1.22,8.13-.7,12.17.03.12,0,.3-.18.43-.3,1.67-1.86,3.87-2.04,6.18-1.98,1.34,0,2.68.15,3.99-.43,4.93-2.19,9.92-1.92,15.19-1.28,6.27.76,13,1.28,16.34-6.24.49-1.13,1.98-1.58,2.01-3.07.06-4.87,1.37-9.68,1.07-14.58-.09-1.37.06-3.04-1.86-3.41-1.4-.27-2.83-.46-4.26-.58-8.31-.76-16.56.46-24.71,1.58-4.17.58-8.25,1.13-12.45,1.13-2.19,0-4.44-1.19-6.3-.7-3.47.97-7,1.43-10.47,2.25-4.23.97-8.34,3.01-12.84,2.04-1.52-.33-2.74.18-4.14.49-2.8.58-5.72,1.25-8.55.21-1.16-.43-2.16-.55-3.35-.27-9.28,2.25-18.78,2.25-28.21,2.8-4.66.27-9.13,1.64-13.88,1.52-5.11-.12-10.29.76-15.4,1.16-6.97.52-13.97.3-20.94,1.1-.33.03-.76.06-1.07-.09-3.5-1.58-7.18-.21-10.74-.61-3.14-.37-6.39.18-9.59.3-1.22.06-2.37-.06-2.77-1.52,1.22-.21,2.47-.55,3.68-.64,7.73-.58,15.49-.91,23.19-1.74,11.2-1.16,22.34-2.62,33.63-2.62.79,0,1.61-.18,2.37-.37,5.24-1.31,10.62-1.22,15.95-1.73,5.14-.52,10.32-.76,15.49-1.25,6.76-.64,13.45-1.67,20.24-2.01,6.88-.34,13.67-1.49,20.54-1.8,7.4-.33,14.76-1.31,22.13-1.95,5.42-.46,10.93-.46,16.28-1.37,6.57-1.13,13.21-.52,19.75-1.25-.49,2.37.61,4.72.03,7.09-.12,2.56-.27,5.11.4,7.61-.37,6.64.97,13.15,1.73,19.69.06.55.34,1.37.79,1.19,2.07-.82,1.86.88,2.22,1.89.33.88.7,1.67,1.8,1.7.94,3.01,1.92,6.03,2.86,9.04-2.53-.55-3.99-2.4-5.36-4.32-.33-.49-.3-1.34-1.19-1.25-.73.09-1,.79-1.1,1.37-.21,1.7-1.37,1.8-2.77,2.22-5.17,1.55-10.5.61-15.74,1.46-5.11.82-10.29,1.22-15.43,1.64-7.73.64-15.49,1.22-23.25,1.67-9.8.58-19.51,2.22-29.37,2.13-.61,0-1.28,0-1.86.15-6.85,1.64-13.88,1.61-20.82,2.37-4.87.52-9.77,1.03-14.67,1.28-.55,0-1.28.06-1.25.73.03.97.82.67,1.43.55,2.37-.55,4.84.09,7.21-.64.52-.15,1.13,0,1.37.58.24.61-.24.76-.7.85-2.5.46-4.69,1.86-7.37,2.01-2.13.12-4.29.09-6.42.3-6.94.73-13.91,1.37-20.85,2.1-.61.06-1.31.24-1.7.64-1.49,1.49-3.32,1.55-5.24,1.46-1.07-.03-2.22-.18-3.2.15-5.45,1.83-11.2,1.89-16.8,2.37-4.78.43-9.47,1.37-14.24,1.7-5.36.37-10.56,2.5-16.1,2.19-.52,0-1.07.12-1.55.34-1.83.82.46,2.4-.55,3.53-.18.18,1,.21,1.58.15,4.81-.46,9.59-1.16,14.4-1.28,8.13-.21,16.28.18,24.35-.7,4.26-.46,8.58-.12,12.84-.88,1.58-.27,3.38-.64,5.48.73-3.17.27-5.57,1.13-8.19,1.4-5.11.58-10.32.85-15.22,2.59-3.38,1.22-7.21,1.83-9.71,4.72-1.89,2.19-4.05,3.17-6.88,2.98-.85-.03-1.77.34-2.56.73-.79.4-1.19,1.03-.33,1.92,1.22,1.25,8.04,2.65,9.47,1.83.3-.18.61-.46.73-.76,1.28-2.98,4.29-4.14,6.57-6.03,3.59-2.98,7.88-3.93,12.33-2.83,4.54,1.13,8.89,2.89,13.45,4.05,1.16.27,1.98,1.43,2.19,2.53.3,1.55,1.43,2.65,1.95,3.96,1.22,3.04,3.9,5.69,3.07,9.41-.58,2.56-1.49,4.99-2.71,7.27-1.67,3.14-4.2,4.81-7.94,3.68-.79-.24-1.43,0-1.64.88l-.15.15ZM160.37,291.04h.27c1.74.15,2.77-.82,3.04-2.37.24-1.52-1.1-1.43-2.01-1.31-1.67.21-3.71-.24-4.63,1.77-.21.49.33.97.79,1.28.79.52,1.64.67,2.56.64h-.03ZM235.37,265.68c-2.56-.09-5.2-1.1-7.52.7,2.56.27,5.17,1.07,7.52-.7Z"/>
  <path class="cls-17" d="M361.32,207.73c-6.57.73-13.18.12-19.75,1.25-5.36.91-10.84.91-16.28,1.37-7.37.64-14.73,1.58-22.13,1.95-6.88.3-13.67,1.46-20.54,1.8-6.79.34-13.48,1.4-20.24,2.01-5.14.49-10.32.73-15.49,1.25-5.33.52-10.71.46-15.95,1.73-.79.18-1.58.37-2.37.37-11.26,0-22.43,1.46-33.63,2.62-7.7.79-15.46,1.13-23.19,1.74-1.25.09-2.47.43-3.68.64h-.94c-3.29-.43-6.51.49-9.74.67-6.88.46-13.79.55-20.67.94-.88.06-1.8-.12-2.5.67h-.91c-2.13-.52-4.17.18-6.21.52-.43.03-.88.06-1.31.09-1.19-.27-2.34-.58-3.38.43-.67,0-1.34,0-2.01.03-.67-.18-1.31-.18-1.77.43l-2.53.06c-2.92.06-3.29.27-3.29,1.98v1.58c-1.03,4.47-.94,8.98-.06,13.45l.06,1.55c.21,6.18,1.07,12.27,2.8,18.17.94,3.17,1.37,6.42,2.25,9.62.97,3.41,2.74,5.91,5.87,7.52,8.31,4.32,16.8,8.22,25.51,11.72,4.84,1.95,9.62,4.11,14.15,6.76.91.55,1.64,1.07,1.61,2.22-2.68,1.49-5.42,1.31-8.19.4-.21-.12-.4-.21-.61-.34-.18,0-.3-.06-.43-.18.03-.15.06-.27.06-.43l.12-.18-.18.12c-.21.06-.43.15-.67.21-.15,0-.3-.03-.43-.15-.15-1.52-1.49-1.92-2.53-2.5-1.31-.73-2.8-1.19-4.08-1.98-6.97-4.32-14.43-7.73-21.88-11.11-3.01-1.34-6.12-2.53-7.61-5.84-.24-1.37-.64-2.65-1.98-3.35-1.77-3.29-2.13-6.91-2.53-10.56-.73-6.39-1.67-12.78-2.59-19.14-.49-3.41,1.22-7.49-2.28-10.29-.12-.09,0-.52.09-.76,1.13-2.98.67-5.6-1.13-8.31-1.64-2.53-3.29-4.2-6.57-3.59-2.22.4-2.62.88-1.49,2.89,2.19,3.87,2.74,8.22,3.38,12.45.49,3.26.15,6.6.15,9.92-2.68.33-4.99-1.64-7.52-1.49-3.35.18-4.2-1.22-3.87-4.2.21-1.7-.52-2.62-2.37-1.89-8.25-3.65-16.53-7.27-24.78-10.93-2.04-.91-4.75-.85-5.45-3.71,2.56.88,5.08.3,7.67.15,2.22-.12,2.47-1.03,2.28-2.74,7.43-.43,14.88-.88,22.19-1.83,7.34-.97,14.73-1.13,22.07-2.22,8.77-1.31,17.65-1.64,26.48-2.47,16.83-1.55,33.69-3.17,50.53-4.72,10.41-.97,20.82-1.83,31.23-2.8,16.77-1.55,33.51-3.14,50.25-4.72,13.79-1.31,27.58-2.62,41.36-3.93,14.34-1.37,28.67-2.77,43.01-4.08,3.8-.33,6-2.04,7.18-6,.52-.67,1.07-1.31,1.58-1.98.58,1.07.52,2.13.4,3.32-.3,2.92-2.43,4.84-3.56,7.27-.73.91-.91,1.98-.09,2.86.7.76,1.64.09,2.47-.09,1-.21,2.04-.43,3.04-.64,1.28,3.17,1,3.53-2.56,3.8-1.31.09-2.59.4-3.9.61h.03ZM143.45,221.21c-.58-.06-.97.18-1.19.7-1.77-.06-3.5-.12-5.27-.18-.88-.09-1.77-.24-2.25.76-1.92-.06-3.83-.12-5.75-.18-.61-.12-1.22-.12-1.7.4-3.53.64-7.12.58-10.68.7-.4.12-.76.21-1.16.34-1.89.06-3.74.12-5.63.18-.55,0-1.13.15-1.19.82-.12.88.55,1,1.22,1.03h1.34c.24,1.37,1.19.91,2.07.85,7.49-.61,14.97-1.16,22.43-1.83,5.33-.49,10.65-1.1,16.44-1.74-1.58-.61-2.86,0-3.87-.79.18,0,.4-.06.58-.06,4.02-.12,8-.61,11.99-.97,14.49-1.34,28.98-2.59,43.46-3.9,1.95-.18,3.9-.55,5.84-.82-.33-.55-.64-.76-.94-.73-6.76.7-13.51,1.25-20.27,1.67-10.41.64-20.82,1.58-31.23,2.62-3.35.33-6.79,0-10.07.97-1.4.06-2.83.09-4.23.15h.06ZM214.31,215.28s-.49.18-.52.37c-.12.49.3.58.64.55.21,0,.58-.18.61-.33.12-.49-.3-.52-.73-.58Z"/>
  <path class="cls-3" d="M382.77,172.18c3.74-4.41,8.07-8.28,12.39-12.08,7.79-6.85,15.64-13.64,24.56-19.02,2.34-1.4,5.08-2.04,7.24-3.77h-.09c.55.64,1.03.12,1.55-.06,5.57-1.28,10.53.24,15.43,2.89,8.55,4.66,17.44,8.71,26.02,13.36,5.3,2.86,6.63,7.49,6.45,12.81-.21,5.63-2.62,10.74-4.57,15.92-.34.91-.64,1.86-.98,2.8-3.01,6.39-6.03,12.78-9.01,19.17-1.86,2.34-3.07,5.02-4.35,7.7-.18.37-.37.73-.52,1.1-.83.7-1.25,1.64-1.58,2.65l.03.03c-.33.06-.49.27-.45.61-.06.18-.09.33-.15.52-.12.09-.15.21-.12.37-.88.49-1.22,1.34-1.52,2.25-.15.3-.34.61-.49.88-1.25,1.58-2.68,3.04-3.14,5.11-.43.85-.85,1.74-1.31,2.59-1.1.06-1.49.7-1.43,1.7-.06.12-.09.24-.09.4-1.83.82-2.5,2.68-3.29,4.23-.76,1.46-1.49,2.74-3.1,3.32v-2.01c2.13-1.95,3.1-4.69,4.69-6.97,7.34-10.59,13.48-21.82,19.3-33.3,2.38-4.66,4.26-9.53,6.42-14.24,1.83-4.02,2.93-8.4,3.84-12.75.98-4.63-.7-8.92-3.62-12.39-1.64-1.95-4.35-3.14-6.76-4.23-3.77-1.7-7.42-3.65-11.47-4.9-3.74-1.16-6.73-4.32-10.62-5.91-4.6-1.86-8.95-2.53-13.76-1.77-2.56.4-4.57,2.28-7,2.5-2.01.18-3.1,1-4.02,2.53-1.25,2.07-2.86,3.56-5.51,3.74-1.49.12-3.17,1.19-3.47,2.56-.37,1.61,1.31,2.47,2.68,3.26,3.1,1.77,6.12,3.71,9.1,5.69,1.83,1.19,3.56,2.92,5.72,3.44,1.64.4,2.86,1.31,4.29,1.98,2.13,1,3.04,3.59,5.51,4.05,2.92.58,4.9,3.17,7.88,3.68.64.12,1.1.94.88,1.77-.12.46-.52.88-.97.73-2.74-.76-5.6.09-8.43-1.03-3.59-1.4-6.09-4.35-9.59-5.81-2.28-.94-4.81-1.52-6.79-3.07-1.73-1.37-4.11-1.16-5.84-2.53-.4-.3-1.19-.18-1.49.27-1.67,2.56-3.41,1.25-5.24.21-1.7-.97-3.5-1.8-5.24-2.68-1.37-.7-2.83-1.16-3.74.52-.94,1.7.37,2.74,1.58,3.47,3.87,2.31,7.76,4.57,11.69,6.73,1.03.58,2.22,1.07,2.8,2.01,1.61,2.59,4.69,2.92,6.94,4.44,2.65,1.8,5.51,3.07,7.27,5.9.37.58,1,1,1.61,1.37,3.07,1.92,5.33,4.29,5.45,8.22.06,2.19,1.86,3.59,3.77,2.8,2.25-.91,3.77-.73,4.84,2.56,1.25-4.5,2.28-8.13,3.35-11.96.55,1,.43,1.74.3,2.4-1.49,7.46-2.62,14.97-5.17,22.16-1.13,3.17-1.74,6.57-3.74,9.37-1.19-.24-1.13-1.19-1.19-2.07-.37-4.35-.76-8.67-1.07-13.03-.09-1.13-.46-1.98-1.07-2.92-2.74-4.14-6.42-7.18-10.96-9.28,0,.06-.21.27-.21.49,0,.43.03.88.15,1.31,1.77,6.94,2.65,13.97,2.47,21.15,0,.88.15,1.83-.88,2.34-.49-4.93-.43-9.83-1.49-14.82-1.95-9.04-4.38-17.71-10.01-25.17-3.17-4.2-7.15-7.21-12.91-7.03-2.53.09-3.84,2.16-5.94,2.83-1.64-1.1-3.47-.37-5.17-.58-2.43-.27-4.17.46-5.94,2.53-1.58,1.86-2.19,4.81-5.08,5.51,1.55-3.47,4.02-6.36,5.97-9.59l.12-.15-.15.12h-1.64l.06.09Z"/>
  <path class="cls-15" d="M174.13,309.91c1.49-1.37,1.92-3.35,2.92-4.99,2.28-3.77,5.45-6.85,8.28-10.14,1.64-1.89,4.47-2.77,6.82-4.05.43-.24,1.07-.24,1.55-.15,5.08.97,9.37,5.72,9.95,10.87.27,2.56.67,5.11.97,7.7.49,4.23-3.5,8.67-7.76,8.8-4.35.12-8.7.33-13.06.55-.79.03-1.61.24-2.31.58-2.01.91-4.02,2.31-5.24-1.03-.27-.79-1.43-.52-2.22-.7-.82-2.47-.88-4.96.06-7.4l.03-.03Z"/>
  <path class="cls-3" d="M109.57,290.52c-.4-.12-.82-.27-1.22-.4-2.31-1.67-5.08-2.37-7.67-3.47-2.16-.91-4.2-2.34-6.7-2.22-2.56-.73-3.35-2.53-3.5-5.02-.3-5.05,1.64-9.5,3.38-14.06.85-2.28,2.04-3.23,4.41-2.47,2.25,1.95,5.14,2.34,7.82,3.23,1.46,5.14,2.13,10.59,6.18,14.64-.91.88-.52,1.74,0,2.65.7,1.22.27,1.67-1.07,1.34-1.16-.3-2.31-.61-3.65-.94.34,2.77,4.11,3.65,3.07,6.73h-1.07Z"/>
  <path class="cls-17" d="M110.61,290.49c1.03-3.07-2.74-3.93-3.07-6.73,1.34.33,2.5.64,3.65.94,1.34.33,1.77-.12,1.07-1.34-.52-.91-.91-1.77,0-2.65,4.54,2.25,8.43,5.69,13.36,7.18,2.4,2.04,5.45,2.89,8.13,4.44.91.52,2.01.82,2.25,2.04-1.89,1.89-3.68,3.9-5.72,5.63-1.19,1-2.77.58-4.14.09-4.44-1.64-8.89-3.26-13.12-5.48-1.74-.91-3.14-2.1-3.47-4.14h1c.03.7,0,1.46.79,1.77.15.06.58-.15.61-.27.21-1.07-.58-1.31-1.37-1.52l.03.03ZM116.21,294.14c-.12.3-.24.58-.37.88,3.65,1.52,7.31,3.04,10.96,4.54.4.15.91.12,1.13-.43.15-.43-.15-.67-.43-.85-3.5-2.13-7.58-2.59-11.26-4.14h-.03ZM126.43,292.5c.94,1.43,2.07,2.01,3.44,1.98.55,0,.52-.64.27-1.03-.82-1.34-2.04-1.46-3.71-.91v-.03ZM114.29,294.11l.18-.09-.18-.09v.18Z"/>
  <path class="cls-3" d="M89.88,242.61c1.86-.73,2.59.15,2.37,1.89-.37,2.98.49,4.38,3.87,4.2,2.53-.12,4.84,1.83,7.52,1.49.85,1.13.33,2.47.58,3.68-1.61-.52-3.17-1.49-5.27-.76,1.49,2.07,3.44,2.37,5.48,2.43.58,1.95,0,4.02.82,5.94-1.1.06-2.13-.21-3.1-.64-1.73-.76-2.71-.18-3.07,1.58-.24-.58-.34-1.46-.73-1.67-3.56-1.77-2.13-4.32-1-6.67.55-1.13.12-1.7-.67-2.19-.85-.49-1.77-.88-2.68-1.19-2.65-.88-3.99-2.59-3.59-5.45.12-.88.06-1.8-.46-2.59l-.06-.06Z"/>
  <path class="cls-3" d="M135.99,294.45c-.24-1.25-1.34-1.52-2.25-2.04-2.68-1.55-5.72-2.4-8.13-4.44.18-.4.37-.79.55-1.16,7.46,3.41,14.88,6.79,21.88,11.11,1.28.79,2.77,1.22,4.08,1.98,1.03.58,2.37.97,2.53,2.5-5.39-1.95-10.29-4.96-15.43-7.46-1.07-.52-2.04-1.16-3.23-.46v-.03Z"/>
  <path class="cls-17" d="M99.04,262.4c.4-1.77,1.37-2.34,3.07-1.58.97.43,2.01.7,3.1.64.61,1.49.79,3.07.85,4.66-2.68-.88-5.57-1.31-7.82-3.23.27-.18.52-.33.79-.52v.03Z"/>
  <path class="cls-15" d="M69.58,225.35c.18,1.7-.06,2.62-2.28,2.74-2.59.15-5.11.73-7.67-.15-.67-.88-.97-1.67.49-2.07,3.2.46,6.33-.15,9.47-.52ZM65.93,227.27s.03.06.06.09h-2.28v-.09h2.25-.03Z"/>
  <path class="cls-17" d="M93.99,284.43c2.53-.12,4.54,1.31,6.7,2.22,2.59,1.1,5.33,1.8,7.67,3.47-5.14-.97-9.8-3.2-14.37-5.69Z"/>
  <path class="cls-3" d="M155.81,302.39s0,.3-.06.43c-.21-.09-.46-.21-.67-.3.21-.06.43-.15.67-.21l.09.09h-.03Z"/>
  <path class="cls-17" d="M206.91,320.07c.21-.88.85-1.13,1.64-.88,3.74,1.1,6.27-.58,7.94-3.68,1.22-2.28,2.13-4.72,2.71-7.27.82-3.71-1.86-6.36-3.07-9.4-.52-1.28-1.61-2.37-1.95-3.96-.21-1.1-1.07-2.25-2.19-2.53-4.54-1.13-8.92-2.92-13.45-4.05-4.44-1.1-8.74-.15-12.33,2.83-2.28,1.89-5.27,3.04-6.57,6.03-.12.3-.46.58-.73.76-1.46.82-8.28-.58-9.47-1.83-.85-.88-.46-1.52.34-1.92.79-.4,1.7-.76,2.56-.73,2.83.15,4.99-.79,6.88-2.98,2.5-2.89,6.33-3.5,9.71-4.72,4.9-1.77,10.11-2.04,15.22-2.59,2.59-.3,5.02-1.16,8.19-1.4-2.1-1.34-3.93-1-5.48-.73-4.26.76-8.55.4-12.84.88-8.1.88-16.25.46-24.35.7-4.81.12-9.59.82-14.4,1.28-.58.06-1.77.03-1.58-.15,1-1.16-1.28-2.71.55-3.53.49-.21,1.03-.37,1.55-.33,5.54.3,10.74-1.83,16.1-2.19,4.81-.33,9.5-1.31,14.24-1.7,5.6-.49,11.35-.55,16.8-2.37.97-.34,2.13-.18,3.2-.15,1.92.06,3.74,0,5.24-1.46.4-.4,1.13-.58,1.7-.64,6.94-.73,13.91-1.37,20.85-2.1,2.13-.21,4.29-.18,6.42-.3,2.65-.15,4.84-1.55,7.37-2.01.46-.09.94-.24.7-.85-.24-.58-.85-.76-1.37-.58-2.37.76-4.84.12-7.21.64-.61.12-1.4.43-1.43-.55,0-.64.7-.7,1.25-.73,4.9-.24,9.8-.73,14.67-1.28,6.94-.76,14-.7,20.82-2.37.61-.15,1.25-.15,1.86-.15,9.86.09,19.57-1.55,29.37-2.13,7.76-.46,15.49-1.03,23.25-1.67,5.14-.43,10.35-.85,15.43-1.64,5.2-.82,10.56.12,15.74-1.46,1.4-.43,2.56-.52,2.77-2.22.06-.61.37-1.28,1.1-1.37.85-.09.82.76,1.19,1.25,1.37,1.95,2.83,3.8,5.36,4.32.15.18.27.37.43.52,0,1.13.55,1.74,1.61,1.98.58-.94-.09-1.61-.18-2.37,1.22-.15,2.07.43,2.77,1.31,1.64,2.1,3.8,3.65,6.12,4.72,9.04,4.11,17.41,9.44,26.42,13.64,1.61.73,3.56,1.4,4.78,2.89-2.47,1.98-5.24.94-7.79,1.28-9.31,1.16-18.69,1.64-28,2.56-2.65.27-5.51-.21-7.97,1.31-.37.03-.76.06-1.13.09-4.17-1.22-8.34.12-12.48.3-9.62.4-19.21,1.28-28.82,2.01-6.67.52-13.33,1.16-20,1.74-7.46.67-14.91,1.4-22.37,1.98-5.6.46-11.2.76-16.83,1.13-1.49.09-2.01.7-.97,2.04,1.55,3.47.7,5.11-2.92,5.36-2.65.18-5.3.21-7.94.34-1.03-1.28-2.53-1.1-3.9-1.34-1.16-.21-2.04-.85-1.92-2.16.12-1.25,1.25-1.03,2.1-1.07,2.34-.03,4.69-.15,7.12.06-2.5-1.89-5.05-3.53-7.94-4.57-.3-.09-.88-.09-.97.09-2.16,3.35-5.54,2.31-8.49,2.25-1.83-.06-2.95-.21-2.19,2.13.21.73-.37,1.34-.88,1.86-1.13,1.13-1.64,2.5-1.7,4.08-.43.76-.85,1.49-1.28,2.25-.97.33-1.25,1.1-1.22,2.04-.21.37-.46.76-.67,1.13-.09.03-.15.12-.12.21-.03.12-.09.21-.18.3-.49.15-.76.46-.67,1-.12.24-.24.49-.37.7-2.47,1.89-3.53,4.6-4.47,7.4-.12.21-.24.43-.37.64-1.95,1.77-3.29,3.87-3.83,6.45-.12.21-.24.43-.37.64-1.25.15-1.16,1.58-2.01,2.1-2.68-1.19-5.14-2.95-8.16-3.29-2.13-.55-4.26-1.13-6.39-1.67l-.09-.09ZM238.93,270.71c6.64,1.43,13.12-.34,19.63-.82,7.55-.58,15.07-1.46,22.61-1.95,1.22-.09,2.04-.73,3.38-2.25-15.8,1.28-30.83,1.98-45.62,5.02ZM241.3,287.2c2.28,1.55,4.87,1,7.37,1.34-2.25-1.49-4.84-1.19-7.37-1.34Z"/>
  <path class="cls-5" d="M433.3,249.64c.21,5.81-2.28,10.93-4.17,16.19-1.4,3.93-3.04,7.82-6,10.96-.3.12-.58.24-.88.37-.64.06-1.25.09-1.89.15-.73-.3-1.52-.55-2.22-.91-10.93-5.57-21.79-11.23-32.78-16.71-3.38-1.67-5.94-3.93-7.49-7.34-2.74-8.04-3.96-16.37-5.2-24.75.4-.79.12-1.55,0-2.34-.43-3.59-1.25-7.15-1.28-10.8.06-.24.09-.49.15-.73l.06-.06c.94-2.01,2.1-3.83,3.9-5.24.4-.3.82-.76.33-1.37,0-.46.06-.91,0-1.34-.24-1.16-.52-2.5-1.98-2.53-1.49,0-2.1,1.25-2.34,2.53-.24,1.16-.24,2.31.24,3.44-1.92.49-2.59-1.13-2.01-2.07,1.61-2.59.06-3.83-1.58-5.2-.64-1.64-2.5-.49-3.44-1.52.55-1.61,1.98-2.47,2.98-3.65,1.13-.64,2.16,0,3.23.21,2.16,2.8,4.2,5.75,6.54,8.37,2.47,2.77,4.23,6.15,7.24,8.43,1.03,4.23,1,8.71,2.71,12.81,1.8,8.04,5.14,15.25,11.17,21,1.95,1.86,4.14,3.38,6.97,3.8,5.36.76,8.71-2.16,11.57-6.09.76-.85,1.55-1.7,2.31-2.59,1.92-.43,3.5.46,4.96,1.46,2.86,1.98,5.75,3.87,8.89,5.45v.06Z"/>
  <path class="cls-3" d="M377.87,252.35c1.55,3.41,4.11,5.66,7.49,7.34,10.99,5.45,21.85,11.14,32.78,16.71.7.37,1.49.61,2.22.91.67.43,1.31.55,1.89-.15.3-.12.58-.24.88-.37-2.98,2.71-5.54,6.21-10.29,5.84-.52-.03-1.16.15-1.58-.03-6.54-2.92-13.21-.55-19.81-.37-7.4.18-14.73,1.7-22.16,1.61,2.47-1.55,5.33-1.07,7.97-1.31,9.34-.91,18.69-1.4,28-2.56,2.59-.3,5.33.7,7.79-1.28-1.22-1.49-3.2-2.13-4.78-2.89-9.01-4.17-17.38-9.53-26.42-13.64-2.31-1.07-4.47-2.62-6.12-4.72-.7-.88-1.58-1.46-2.77-1.31-.33.15-.67.33-1.03.49-.06-.88-.12-1.77-.18-2.65,1.19-.37,1.31-1.61,1.98-2.4.97-1.16,1.86-1.7,2.92-.18.3.46.64.85,1.22.97v-.03Z"/>
  <path class="cls-3" d="M266.75,293.14c-1.03-1.34-.52-1.92.97-2.04,5.6-.37,11.23-.67,16.83-1.13,7.46-.61,14.91-1.34,22.37-1.98,6.67-.58,13.33-1.22,20-1.74,9.59-.76,19.21-1.61,28.82-2.01,4.14-.18,8.31-1.52,12.48-.3-7.06,1.07-14.21,1.43-21.34,2.04-25.84,2.19-51.71,4.35-77.55,6.51-.88.06-1.8.06-2.56.64h-.03Z"/>
  <path class="cls-3" d="M237.01,300.17c.06-1.58.61-2.95,1.7-4.08.52-.52,1.13-1.13.88-1.86-.76-2.34.37-2.19,2.19-2.13,2.98.09,6.36,1.1,8.49-2.25.12-.18.7-.18.97-.09,2.89,1.07,5.45,2.68,7.94,4.57-2.43-.21-4.78-.12-7.12-.06-.85,0-1.98-.21-2.1,1.07-.12,1.28.76,1.95,1.92,2.16,1.37.24,2.89.06,3.9,1.34-2.5.64-5.11.46-7.64.73-1.03-.46-2.07-.52-3.07.15h-.15c-.15-.03-.27-.03-.43,0-2.53.15-5.05.3-7.58.49l.09-.03Z"/>
  <path class="cls-3" d="M175.96,371.91c2.22-1.86,4.23-2.86,7.34-1.07,1.55.88,4.38,0,6.48-.61,4.78-1.4,9.37-.27,14.06.37.52.06,1.16.18,1.03.94-.15,1-.91,1.31-1.8,1.19-1.95-.21-3.9-.43-5.84-.76-1.19-.21-2.28-.27-3.44.06-2.37.67-4.6,1.55-7.24.4-1.52-.67-3.5.33-4.81,1.19-1.67,1.13.85,1.67.91,2.68-2.98-.33-5.11-1.95-6.7-4.41v.03Z"/>
  <path class="cls-3" d="M166.03,369.08c.85-1.31,2.53-1.43,3.5-2.68.97-1.28.79-1.8-.64-2.28-1.83-.61-3.71-.4-5.57-.49-.52,0-1.22,0-1.19-.7,0-.61.73-.94,1.22-.79,3.01.94,5.84-.79,8.83-.4.82.12,2.07.43,1.43,1.25-1.28,1.61-.3,2.98-.15,4.47-1.73-.85-1.95.24-1.98,1.58-1.8,0-3.59,0-5.39.03h-.06Z"/>
  <path class="cls-15" d="M171.45,369.02c.03-1.31.24-2.43,1.98-1.58,0,0,.06.06.06.03.06.58.33.97.94,1.07.73.91.94,2.04,1.13,3.14-1.25-1.1-2.22-2.59-4.14-2.68l.03.03Z"/>
  <path class="cls-15" d="M228.03,315.2c.94-2.8,2.01-5.51,4.47-7.4-1.03,2.74-2.5,5.23-4.47,7.4Z"/>
  <path class="cls-3" d="M127.32,370.6c2.44-.82,4.9-.67,7.37-.15-2.43.7-4.9.64-7.37.15Z"/>
  <path class="cls-15" d="M223.83,322.3c.55-2.59,1.89-4.69,3.84-6.45-.79,2.43-1.95,4.66-3.84,6.45Z"/>
  <path class="cls-3" d="M141.78,370.11c1.22-.85,2.47-.73,3.71-.09-1.22.33-2.47.58-3.71.09Z"/>
  <path class="cls-15" d="M234.52,304.46c0-.94.24-1.7,1.22-2.04,0,.91-.33,1.64-1.22,2.04Z"/>
  <path class="cls-15" d="M160.16,369.17c.67,0,1.34-.24,1.95.21-.61.67-1.28.52-1.98.18,0-.12.03-.24.06-.37l-.03-.03Z"/>
  <path class="cls-15" d="M245.14,299.65c1-.67,2.04-.61,3.07-.15-1,.27-2.04.3-3.07.15Z"/>
  <path class="cls-3" d="M160.16,369.17s-.03.24-.06.37c-.88,0-1.77-.03-2.65-.06.85-.64,1.77-.46,2.71-.33v.03Z"/>
  <path class="cls-15" d="M232.87,307.11c-.12-.55.15-.85.67-1,.12.55-.06.91-.67,1Z"/>
  <path class="cls-15" d="M244.59,299.68s.27-.03.43,0h-.43Z"/>
  <path class="cls-15" d="M233.72,305.8s.03-.18.12-.21l.06.18h-.18v.03Z"/>
  <path class="cls-3" d="M177.17,360.46c3.44.49,6.88,1.1,10.29,1.67,6.42,1.13,12.94,1.37,19.39,2.28,2.4.33,5.11,1.49,7-1.46.58-.91,5.72-.4,6.7.55,1.16,1.13,1.25,2.5.43,3.93-1.92-1.31-3.8-2.19-6.39-1.8-2.95.49-6.03.4-9.07-.12-1.49-.27-3.1-.49-4.54-.15-4.29,1.03-8.61.33-12.75-.24-3.47-.49-6.88-1.92-10.35-2.92-.64-.18-1.22-.82-.7-1.7v-.03Z"/>
  <path class="cls-3" d="M174.43,368.59c-.61-.09-.88-.49-.94-1.07.64.06,1,.4.94,1.07Z"/>
  <path class="cls-3" d="M213.3,321.75c3.01.33,5.48,2.07,8.16,3.29.7,6.97.46,13.94.46,20.91v2.16c-.03.7,0,1.61-.88,1.73-1.13.18-1.19-.88-1.4-1.61-.21-.76-.43-1.61-.33-2.37.67-5.94-1.61-11.41-2.47-17.11-.18-1.22-.52-2.31-1.95-2.95-1.61-.73-.91-2.74-1.58-4.05Z"/>
  <path class="cls-15" d="M363.93,192.6c-1.19,3.93-3.38,5.63-7.18,6-14.34,1.31-28.67,2.71-43.01,4.08-13.79,1.31-27.58,2.62-41.36,3.93-16.74,1.58-33.51,3.17-50.25,4.72-10.41.97-20.82,1.83-31.23,2.8-16.83,1.55-33.69,3.17-50.53,4.72-8.83.82-17.71,1.19-26.48,2.47-7.34,1.1-14.73,1.25-22.07,2.22-7.3.97-14.76,1.43-22.19,1.83-.52-1.98.03-2.89,2.28-3.07,18.48-1.58,36.95-3.26,55.43-4.93,21.06-1.92,42.12-3.9,63.19-5.84,16.5-1.52,33.02-2.98,49.52-4.5,21.34-2.01,42.64-4.08,63.95-6.12,18.11-1.73,36.22-3.5,54.33-5.05,2.59-.21,3.93-1.83,5.6-3.23Z"/>
  <path class="cls-17" d="M370.93,196.99c-1.07-.21-2.1-.85-3.23-.21-.18-3.04-.06-6.09.46-9.1,4.57-5.45,9.31-10.71,14.58-15.49h1.64c-1.95,3.26-4.41,6.15-5.97,9.62-1.49,1.52-2.13,3.47-2.86,5.39-.52.18-.82.58-.88,1.13-1.4,1.13-1.37,2.8-1.61,4.35-.24,1.7-.61,3.32-2.16,4.35l.03-.03Z"/>
  <path class="cls-15" d="M368.19,187.67c-.52,3.01-.67,6.06-.46,9.1-1,1.19-2.43,2.04-2.98,3.65.97,1,2.83-.12,3.44,1.52-.15.12-.3.24-.46.37-1.86-.06-3.77.21-5.36-1.1,1.13-2.43,3.26-4.38,3.56-7.27.12-1.19.18-2.25-.4-3.32.67-1.16.97-2.68,2.65-2.92v-.03Z"/>
  <path class="cls-15" d="M125.8,227.39c.43-.03.88-.06,1.31-.09,2.22,1.67,4.23.61,6.21-.52h.91c4.44,1.55,8.98.85,13.48.58,2.89-.18,5.94-1.19,8.61-.58,3.59.82,6.57-1.28,9.89-1.1.27,0,.58-.79.88-1.22h.94c.4,1.46,1.55,1.58,2.77,1.52,3.2-.12,6.45-.67,9.59-.3,3.59.43,7.27-.94,10.74.61.3.12.7.12,1.07.09,6.97-.76,13.97-.58,20.94-1.1,5.14-.4,10.29-1.28,15.4-1.16,4.75.12,9.22-1.25,13.88-1.52,9.44-.55,18.96-.55,28.22-2.8,1.19-.27,2.19-.15,3.35.27,2.83,1,5.75.37,8.55-.21,1.4-.27,2.62-.79,4.14-.49,4.5.97,8.61-1.07,12.84-2.04,3.47-.79,7-1.28,10.47-2.25,1.86-.52,4.11.7,6.3.7,4.2,0,8.28-.55,12.45-1.13,8.16-1.13,16.41-2.34,24.71-1.58,1.43.12,2.83.3,4.26.58,1.92.37,1.77,2.01,1.86,3.41.3,4.9-1,9.71-1.07,14.58,0,1.49-1.49,1.95-2.01,3.07-3.38,7.52-10.07,7-16.34,6.24-5.27-.64-10.29-.88-15.19,1.28-1.28.58-2.65.46-3.99.43-2.28-.03-4.5.12-6.18,1.98-.12.12-.3.33-.43.3-4.08-.76-8.16,1.19-12.17-.03-.94-.27-1.89-.85-2.83-.58-3.47,1-7.06,1.4-10.62,1.8-.97.12-1.98.52-2.89.27-4.29-1.16-8.89-.97-12.72.33-4.69,1.55-9.53.33-13.91,1.98-3.62,1.37-7.24,2.5-10.96,3.44-1.86.49-3.65.85-5.54.73-2.68-.12-5.17.3-7.24,2.22-.52.49-1.28,1.07-1.92.73-2.53-1.31-4.26.37-6.12,1.46-1.03.61-2.1.91-3.29.97-6.85.33-13.7.76-20.58,1.03-2.62.12-4.63,1.86-7.09,2.34-1,.21-2.07.61-2.83-.12-1.98-1.95-3.74-1.1-5.75-.06-2.16,1.1-4.75,1-6.85.3-2.56-.88-5.14-.49-7.67-1.07-.76-.18-1.49.09-1.98.61-2.19,2.47-5.54,2.25-8.07,3.56-3.74,1.98-8.19,1.49-11.63,3.96-.61.46-1.8.58-1.61,1.55.24,1.22,1.46.79,2.25.79,10.04,0,20.12.43,30.1-.09,9.34-.52,18.69-.76,28.79-1.25-2.13,1.1-3.8,1.07-5.36,1.28-4.5.58-9.01,1-13.57,1.03-4.78.06-9.59.94-14.4,1.31-4.17.3-8.37.61-12.54,1-2.19.21-4.78-.4-5.84,2.56-.09.27-.73.49-1.16.55-6.21,1.13-12.42,2.37-18.72,2.77-1.34.09-2.71-.06-1.67,2.07.58,1.22-1.95,3.53-3.53,3.01-4.32-1.4-8.67-2.89-12.3-5.66-3.41-2.65-3.62-7-4.69-10.84-1.83-6.67-2.53-13.51-3.77-20.27-.12-.73-.21-1.43-1.03-1.7,0-.52-.03-1.03-.06-1.55.85-4.47.76-8.98.06-13.45v-1.58c1.19-.49,2.4-.91,3.29-1.98.85,0,1.7-.03,2.53-.06.76.55,1.34.33,1.77-.43.67,0,1.34,0,2.01-.03,1.19.46,2.37.67,3.38-.43l.15-.06Z"/>
  <path class="cls-5" d="M371.79,253.96c.06.88.12,1.77.18,2.65-.09-.12-.24-.18-.4-.12-.15-.18-.27-.37-.43-.52-.94-3.01-1.92-6.03-2.86-9.04-.37-2.19-.79-4.35-1.13-6.54-.97-6.45-1.92-12.91-2.86-19.36.18-2.1.3-4.2-.24-6.3,2.62.09,2.01,2.83,3.26,4.05.4,2.34.52,4.72.52,7.09,0,1.73-.24,3.53.58,5.2.15,7.79,1.92,15.31,3.35,22.92l.03-.03Z"/>
  <path class="cls-15" d="M367.34,218.78c-1.25-1.22-.64-3.93-3.26-4.05-.91.03-1.83.06-2.74.12.55-2.37-.52-4.72-.03-7.09,1.31-.21,2.59-.49,3.9-.61,3.56-.27,3.83-.64,2.56-3.8,0-.33-.03-.67-.06-1.03.15-.12.3-.24.46-.37,1.64,1.4,3.2,2.62,1.58,5.2-.58.94.09,2.56,2.01,2.07,1.8.12,2.77-1.37,4.11-2.13.46.61.06,1.07-.33,1.37-1.8,1.37-2.95,3.23-3.9,5.24,0-1.22-.61-2.19-1.43-3.04-1.13-1.19-2.37-.4-3.44,0-1,.37-.76,1.49-.61,2.34.27,1.52,1.55,1.16,2.56,1.13.97-.03,1.92-.24,2.89-.37-.06.24-.09.49-.15.73-1.61,1.19-2.07,3.5-4.11,4.32v-.03Z"/>
  <path class="cls-15" d="M364.09,214.73c.94,6.45,2.13,19.21,3.07,25.66.33,2.19.76,4.38,1.13,6.54-1.1-.03-1.46-.82-1.8-1.7-.37-1-.15-2.71-2.22-1.89-.46.18-.7-.64-.79-1.19-1.13-6.45-2.5-20.64-2.13-27.3.85-.49,1.8-.4,2.74-.09v-.03Z"/>
  <path class="cls-17" d="M160.37,291.04c-.91.03-1.77-.12-2.56-.64-.46-.3-1-.76-.79-1.28.94-2.04,2.95-1.55,4.63-1.77.91-.12,2.28-.21,2.01,1.31-.27,1.55-1.28,2.53-3.04,2.37h-.27.03Z"/>
  <path class="cls-17" d="M235.37,265.68c-2.34,1.77-4.96.97-7.52.7,2.31-1.8,4.96-.79,7.52-.7Z"/>
  <path class="cls-15" d="M106.07,266.11c-.06-1.58-.24-3.17-.85-4.66-.79-1.92-.24-3.99-.82-5.94-.06-.55-.15-1.1-.21-1.64-.24-1.22.27-2.56-.58-3.68,0-3.32.33-6.7-.15-9.92-.64-4.23-1.22-8.61-3.38-12.45-1.13-1.98-.73-2.5,1.49-2.89,3.32-.58,4.93,1.07,6.57,3.59,1.8,2.71,2.25,5.33,1.13,8.31-.09.24-.18.67-.09.76,3.47,2.8,1.8,6.88,2.28,10.29.91,6.36,1.89,12.75,2.59,19.14.4,3.65.76,7.24,2.53,10.56-.09,1.58.64,2.65,1.98,3.35,1.46,3.32,4.6,4.5,7.61,5.84-.18.4-.37.79-.55,1.16-4.93-1.49-8.83-4.96-13.36-7.18-4.05-4.05-4.72-9.5-6.15-14.64h-.03Z"/>
  <path class="cls-3" d="M147.68,221.06c3.29-.94,6.73-.64,10.07-.97,10.38-1.03,20.79-1.98,31.23-2.62,6.79-.43,13.54-.97,20.27-1.67.3-.03.61.18.94.73-1.95.27-3.9.64-5.84.82-14.49,1.31-28.98,2.53-43.46,3.9-3.99.37-7.97.88-11.99.97-.4-.4-.79-.76-1.16-1.16h-.06Z"/>
  <path class="cls-3" d="M148.26,222.28c1,.79,2.28.18,3.87.79-5.81.61-11.11,1.25-16.44,1.74-7.49.67-14.94,1.19-22.43,1.83-.88.06-1.83.52-2.07-.85.43-.09.85-.27,1.28-.3,7.43-.7,14.85-1.43,22.28-2.1,4.5-.4,9.01-.73,13.54-1.07l-.03-.03Z"/>
  <path class="cls-15" d="M148.26,222.28c-4.5.37-9.04.67-13.54,1.07-7.43.67-14.85,1.4-22.28,2.1-.43.03-.85.21-1.28.3h-1.34c-.67,0-1.31-.15-1.22-1.03.09-.67.67-.79,1.19-.82,1.89-.09,3.74-.12,5.63-.18.61.67.91.21,1.16-.34,3.56-.12,7.15-.03,10.68-.7.76.73,1.28.46,1.7-.4,1.92.06,3.83.12,5.75.18.91.24,1.8.37,2.25-.76,1.77.06,3.5.12,5.27.18.64.18,1-.15,1.19-.73,1.4-.06,2.83-.09,4.23-.15.4.4.79.76,1.16,1.16-.18,0-.4.06-.58.06l.03.06Z"/>
  <path class="cls-3" d="M167.13,224.44c-.3.43-.61,1.25-.88,1.22-3.35-.18-6.3,1.92-9.89,1.1-2.68-.61-5.72.4-8.61.58-4.5.27-9.04.97-13.48-.58.67-.79,1.61-.61,2.5-.67,6.88-.4,13.79-.52,20.67-.94,3.23-.21,6.45-1.13,9.74-.67l-.03-.03Z"/>
  <path class="cls-3" d="M112.8,231.87c.7,4.47.79,8.98-.06,13.45-.88-4.5-.97-8.98.06-13.45Z"/>
  <path class="cls-3" d="M367.71,202.31c0,.34.03.67.06,1.03-1,.21-2.04.43-3.04.64-.82.18-1.73.85-2.47.09-.79-.85-.64-1.92.09-2.86,1.58,1.28,3.5,1.03,5.36,1.1Z"/>
  <path class="cls-3" d="M133.34,226.75c-2.01,1.13-3.99,2.19-6.21.52,2.07-.33,4.08-1.03,6.21-.52Z"/>
  <path class="cls-3" d="M116.12,228.34c-.85,1.03-2.07,1.49-3.29,1.98,0-1.7.33-1.92,3.29-1.98Z"/>
  <path class="cls-3" d="M118.55,280.9c-1.34-.7-2.1-1.77-1.98-3.35,1.37.7,1.74,1.98,1.98,3.35Z"/>
  <path class="cls-3" d="M125.8,227.39c-1,1.1-2.16.88-3.38.43,1-1,2.19-.7,3.38-.43Z"/>
  <path class="cls-3" d="M137,221.73c-.46,1.13-1.34,1-2.25.76.52-1,1.4-.85,2.25-.76Z"/>
  <path class="cls-3" d="M214.31,215.28c.43.06.85.09.73.58-.03.15-.4.3-.61.33-.33,0-.76-.06-.64-.55.03-.18.37-.27.52-.37Z"/>
  <path class="cls-3" d="M120.41,227.85c-.46.73-1.03.94-1.77.43.49-.61,1.1-.61,1.77-.43Z"/>
  <path class="cls-3" d="M128.96,222.34c-.4.82-.94,1.1-1.7.4.49-.49,1.07-.52,1.7-.4Z"/>
  <path class="cls-3" d="M116.57,223.41c-.24.55-.55,1-1.16.34.4-.12.76-.21,1.16-.34Z"/>
  <path class="cls-3" d="M143.45,221.21c-.21.58-.55.88-1.19.73.21-.52.61-.76,1.19-.73Z"/>
  <path class="cls-3" d="M155.75,302.3l.18-.09-.12.18-.06-.09Z"/>
  <path class="cls-17" d="M440.36,235.67c-.12-.43-.12-1-.43-1.25-3.77-3.41-2.8-7.76-2.4-11.99.06-.61.15-1.25.24-1.86,2.01-2.83,2.62-6.21,3.74-9.37,2.56-7.18,3.68-14.73,5.17-22.16.12-.67.27-1.43-.3-2.4-1.07,3.83-2.07,7.43-3.35,11.96-1.07-3.29-2.59-3.47-4.84-2.56-1.92.79-3.68-.61-3.77-2.8-.12-3.93-2.4-6.3-5.45-8.22-.61-.37-1.25-.79-1.61-1.37-1.77-2.83-4.63-4.14-7.27-5.91-2.25-1.52-5.33-1.86-6.94-4.44-.58-.94-1.77-1.43-2.8-2.01-3.93-2.16-7.82-4.41-11.69-6.73-1.22-.73-2.53-1.8-1.58-3.47.91-1.67,2.37-1.22,3.74-.52,1.73.88,3.53,1.74,5.23,2.68,1.83,1.03,3.56,2.34,5.24-.21.3-.46,1.07-.61,1.49-.27,1.73,1.37,4.08,1.16,5.84,2.53,1.98,1.58,4.5,2.13,6.79,3.07,3.5,1.46,6,4.41,9.59,5.81,2.86,1.13,5.69.27,8.43,1.03.46.12.85-.27.97-.73.21-.82-.21-1.64-.88-1.77-2.98-.55-4.96-3.14-7.88-3.68-2.47-.49-3.38-3.04-5.51-4.05-1.43-.67-2.65-1.58-4.29-1.98-2.16-.52-3.9-2.22-5.72-3.44-2.98-1.98-6-3.9-9.1-5.69-1.37-.79-3.04-1.64-2.68-3.26.3-1.37,1.98-2.43,3.47-2.56,2.68-.21,4.26-1.67,5.51-3.74.94-1.52,2.01-2.37,4.02-2.53,2.43-.21,4.41-2.1,7-2.5,4.81-.73,9.16-.09,13.76,1.77,3.9,1.58,6.88,4.72,10.62,5.9,4.05,1.28,7.7,3.2,11.48,4.9,2.44,1.1,5.14,2.28,6.76,4.23,2.89,3.44,4.59,7.76,3.62,12.39-.91,4.32-2.01,8.74-3.83,12.75-2.16,4.75-4.05,9.59-6.42,14.24-5.81,11.47-11.96,22.74-19.3,33.3-1.58,2.31-2.56,5.05-4.69,6.97l.03-.09Z"/>
  <path class="cls-17" d="M424.96,218.51c-.43,7.94-1.73,15.71-5.27,22.92-.18.37-.15.85-.24,1.28-.76.85-1.55,1.7-2.31,2.59-2.53-1.52-2.8-4.11-.61-6.03,1.58-1.37,1.67-3.35,1.28-4.9-.4-1.52-2.31-.76-3.59-.82-1.19-.06-1.77.73-2.01,1.77-.33,1.58-.67,3.14-.91,4.72-.24,1.55-4.9,3.71-6.21,2.83-.79-.55-.64-1.28-.18-1.86,1.1-1.4,1.07-2.98,1-4.6-.03-1.25.37-2.4.67-3.62.76-3.1,2.92-5.78,2.56-9.19-.12-1.03.33-2.47-1.03-2.74-1.58-.3-1.64,1.34-2.04,2.34-.4.97-.52,2.07-.79,3.1-.21.88-.52,1.8-1.43,2.16-1.03.43-1.64.91-1.46,2.16.09.61-.55.88-1.1.97-.64.12-1.07-.3-1.19-.85-.55-2.4-2.22-4.54-1.77-7.18.24-1.49-.3-2.59-1.92-3.04-1.25-.34-1.83-1.37-2.19-2.53-.21-.67-.15-1.58-.85-1.92-2.01-.94-1.58-2.65-1.28-4.17.3-1.55.55-3.17,1.43-4.6.4-.61.88-1.55.12-1.89-1.03-.46-1.22.76-1.52,1.43-.76,1.7-1.22,3.53-1.64,5.36-.3,1.22.79,3.9-2.4,2.83-.12-.03-.46.7-.73,1.03-1.31,1.61-.03,3.26-.03,4.87,0,1.86,1.55,3.71.09,5.6-1.67-4.11-1.64-8.58-2.71-12.81.06-1.25.18-2.5.18-3.71,0-7.21-.06-14.4,2.13-21.43,1.64-5.3,3.96-10.14,7.61-14.31,2.1-.67,3.41-2.74,5.94-2.83,5.75-.18,9.71,2.83,12.91,7.03,5.63,7.46,8.04,16.13,10.01,25.17,1.07,4.99,1.03,9.89,1.49,14.82v.03Z"/>
  <path class="cls-15" d="M394.61,174.34c-3.65,4.17-5.97,9.01-7.61,14.31-2.19,7.03-2.1,14.21-2.13,21.43,0,1.25-.12,2.5-.18,3.71-3.01-2.28-4.78-5.66-7.24-8.43-2.34-2.65-4.38-5.57-6.54-8.37,1.52-1.07,1.92-2.65,2.16-4.35.21-1.55.18-3.23,1.61-4.35.67-.06,1-.4.88-1.13.73-1.92,1.37-3.87,2.86-5.39,2.89-.7,3.47-3.62,5.08-5.51,1.73-2.04,3.47-2.8,5.94-2.53,1.73.18,3.56-.52,5.17.58v.03Z"/>
  <path class="cls-17" d="M384.39,172.18l.15-.15-.12.15h-.03Z"/>
  <path class="cls-3" d="M116.21,294.14c3.71,1.52,7.76,2.01,11.26,4.14.3.18.61.46.43.85-.21.52-.7.58-1.13.43-3.65-1.49-7.3-3.01-10.96-4.54.12-.3.24-.58.37-.88h.03Z"/>
  <path class="cls-3" d="M126.43,292.5c1.67-.55,2.86-.43,3.71.91.24.4.27,1.03-.27,1.03-1.37.03-2.5-.55-3.44-1.98v.03Z"/>
  <path class="cls-3" d="M110.61,290.49c.79.21,1.58.46,1.37,1.52,0,.12-.46.33-.61.27-.82-.34-.73-1.1-.79-1.77l.03-.03Z"/>
  <path class="cls-3" d="M114.29,294.11v-.18l.18.09-.18.09Z"/>
  <path class="cls-17" d="M104.19,253.87c.06.55.15,1.1.21,1.64-2.04-.06-3.99-.33-5.48-2.43,2.1-.73,3.65.27,5.27.76v.03Z"/>
  <path class="cls-3" d="M238.93,270.71c14.79-3.07,29.83-3.77,45.62-5.02-1.34,1.49-2.16,2.16-3.38,2.25-7.55.52-15.1,1.37-22.61,1.95-6.51.52-13,2.28-19.63.82Z"/>
  <path class="cls-3" d="M241.3,287.2c2.5.15,5.11-.15,7.37,1.34-2.47-.34-5.08.21-7.37-1.34Z"/>
  <path class="cls-15" d="M371.6,256.52c.15-.06.27,0,.4.12.33-.15.7-.33,1.03-.49.09.76.76,1.43.18,2.37-1.03-.24-1.61-.85-1.61-1.98v-.03Z"/>
  <path class="cls-3" d="M387.43,226.6c1.46-1.89-.09-3.74-.09-5.6,0-1.61-1.28-3.26.03-4.87.27-.33.61-1.07.73-1.03,3.2,1.07,2.1-1.58,2.4-2.83.46-1.83.88-3.65,1.64-5.36.3-.67.52-1.89,1.52-1.43.76.33.27,1.28-.12,1.89-.88,1.4-1.13,3.01-1.43,4.6-.3,1.52-.73,3.23,1.28,4.17.7.33.61,1.25.85,1.92.4,1.13.97,2.19,2.19,2.53,1.61.46,2.19,1.52,1.92,3.04-.46,2.68,1.22,4.78,1.77,7.18.12.55.55.94,1.19.85.55-.09,1.19-.37,1.1-.97-.18-1.25.43-1.77,1.46-2.16.91-.37,1.19-1.28,1.43-2.16.27-1.03.4-2.13.79-3.1.4-.97.46-2.65,2.04-2.34,1.37.27.91,1.7,1.03,2.74.37,3.41-1.8,6.09-2.56,9.19-.3,1.22-.73,2.34-.67,3.62.06,1.61.09,3.2-1,4.6-.46.58-.61,1.34.18,1.86,1.31.88,5.94-1.28,6.21-2.83.27-1.58.58-3.17.91-4.72.24-1.07.82-1.86,2.01-1.77,1.28.06,3.2-.7,3.59.82.4,1.58.3,3.56-1.28,4.9-2.22,1.89-1.95,4.5.61,6.03-2.86,3.93-6.18,6.88-11.57,6.09-2.83-.4-5.02-1.95-6.97-3.8-6.03-5.75-9.37-12.97-11.17-21l-.03-.03Z"/>
  <path class="cls-15" d="M371.79,253.96c-2.01-7.37-4.6-27.82-4.75-35.58,1.19.37,1.03-1.86,1.25-2.62.4-1.4,1.58-1.13,3.14-1.03,1.25,8.34,3.71,29.58,6.45,37.62-.58-.09-.88-.52-1.22-.97-1.07-1.52-1.95-.97-2.92.18-.67.79-.79,2.07-1.98,2.4h.03Z"/>
  <path class="cls-3" d="M375.89,207.09c-1.34.76-2.31,2.25-4.11,2.13-.46-1.13-.46-2.28-.24-3.44.27-1.31.85-2.56,2.34-2.53,1.46,0,1.73,1.37,1.98,2.53.09.43,0,.88,0,1.34l.03-.03Z"/>
  <path class="cls-3" d="M375.59,187.16c.12.7-.21,1.03-.88,1.13.09-.55.37-.91.88-1.13Z"/>
  <path class="cls-3" d="M371.57,213.73c-.94.12-1.92.3-2.89.37-1,.06-2.28.4-2.56-1.13-.15-.85-.4-2.01.61-2.34,1.07-.37,2.31-1.16,3.44,0,.82.85,1.4,1.83,1.43,3.04l-.06.06h.03Z"/>
  <path d="M258.5,0C115.72,0,0,115.72,0,258.5s115.72,258.5,258.5,258.5,258.5-115.72,258.5-258.5S401.25,0,258.5,0ZM258.5,506.9c-137.21,0-248.43-111.22-248.43-248.43S121.29,10.07,258.5,10.07s248.43,111.22,248.43,248.43-111.22,248.43-248.43,248.43v-.03Z"/>
  <path d="M244.89,309.06v-.13h.03v.02h0s0-.01.01-.02c0,0,.01,0,.02,0,0,0,.02,0,.02,0,0,0,0,0,.01.02h0s0-.01.01-.02c0,0,.01,0,.02,0,.01,0,.02,0,.03.01,0,0,.01.02.01.03v.09h-.04v-.08s0-.01,0-.02c0,0,0,0-.01,0,0,0-.01,0-.01,0,0,0,0,0,0,.02v.08h-.03v-.08s0-.01,0-.01c0,0,0,0-.01,0,0,0,0,0-.01,0,0,0,0,0,0,0s0,0,0,.01v.08h-.04ZM245.17,309.06s-.02,0-.03,0c0,0-.02-.01-.02-.02s0-.02,0-.03,0-.02,0-.03c0,0,.01-.02.02-.02,0,0,.02,0,.03,0s.02,0,.03,0c0,0,.02.01.02.02,0,0,0,.02,0,.03s0,.02,0,.03-.01.02-.02.02c0,0-.02,0-.03,0ZM245.17,309.03s.01,0,.01,0c0,0,0,0,0-.01,0,0,0-.01,0-.02,0,0,0-.01,0-.02,0,0,0-.01,0-.01,0,0,0,0-.01,0s-.01,0-.01,0c0,0,0,0,0,.01,0,0,0,.01,0,.02,0,0,0,.01,0,.02,0,0,0,.01,0,.01,0,0,0,0,.01,0ZM245.29,308.99v.07h-.04v-.13h.03v.02h0s0-.01.01-.02c0,0,.01,0,.02,0s.02,0,.02,0c0,0,.01,0,.02.02,0,0,0,.02,0,.03v.08h-.04v-.08s0-.01,0-.02c0,0,0,0-.02,0,0,0,0,0-.01,0,0,0,0,0,0,0,0,0,0,0,0,.01ZM245.46,309.11s-.02,0-.03,0-.01,0-.02-.01,0-.01,0-.02h.03s0,0,0,0c0,0,0,0,0,0,0,0,0,0,.01,0,0,0,.01,0,.02,0,0,0,0,0,0-.02v-.02h0s0,0,0,0c0,0,0,0-.01,0,0,0-.01,0-.02,0,0,0-.02,0-.03,0,0,0-.01-.01-.02-.02,0,0,0-.02,0-.04s0-.03,0-.04c0,0,.01-.02.02-.02,0,0,.02,0,.03,0,0,0,.01,0,.02,0,0,0,0,0,.01,0,0,0,0,0,0,.01h0v-.02h.04v.13s0,.02,0,.03c0,0-.01.01-.02.02,0,0-.02,0-.03,0ZM245.46,309.03s.01,0,.01,0c0,0,0,0,0-.01,0,0,0-.01,0-.02,0,0,0-.01,0-.02,0,0,0,0,0-.01,0,0,0,0-.01,0,0,0-.01,0-.01,0,0,0,0,0,0,.01,0,0,0,.01,0,.02s0,.01,0,.02c0,0,0,0,0,.01,0,0,0,0,.01,0ZM245.63,309.01v-.07h.04v.13h-.03v-.02h0s0,.01-.01.02c0,0-.01,0-.02,0,0,0-.02,0-.02,0,0,0-.01,0-.02-.02,0,0,0-.02,0-.03v-.08h.04v.07s0,.01,0,.02c0,0,0,0,.02,0,0,0,0,0,.01,0,0,0,0,0,0,0,0,0,0,0,0-.01ZM245.8,308.97h-.03s0,0,0,0c0,0,0,0,0,0,0,0,0,0-.01,0,0,0-.01,0-.01,0,0,0,0,0,0,0,0,0,0,0,0,0,0,0,0,0,.01,0h.02s.02.01.03.02c0,0,0,.01,0,.02s0,.02,0,.02c0,0-.01.01-.02.01,0,0-.02,0-.03,0-.02,0-.03,0-.04-.01,0,0-.02-.02-.02-.03h.03s0,0,0,0c0,0,0,0,.02,0,0,0,.01,0,.01,0,0,0,0,0,0,0,0,0,0,0,0,0,0,0,0,0-.01,0h-.02s-.02-.01-.03-.02c0,0,0-.01,0-.02,0,0,0-.02,0-.02s.01-.01.02-.01.02,0,.03,0c.02,0,.03,0,.04.01,0,0,.01.02.02.03Z"/>
  <rect class="cls-7" x="244.89" y="308.48" width=".18" height=".09"/>
  <rect class="cls-8" x="244.99" y="308.39" width=".09" height=".09"/>
  <rect class="cls-8" x="245.08" y="308.39" width=".09" height=".09"/>
  <rect class="cls-8" x="245.08" y="308.48" width=".09" height=".09"/>
  <rect class="cls-8" x="245.17" y="308.39" width=".09" height=".09"/>
  <rect class="cls-8" x="245.17" y="308.48" width=".09" height=".09"/>
  <rect class="cls-8" x="245.26" y="308.48" width=".09" height=".09"/>
  <rect class="cls-8" x="245.26" y="308.57" width=".09" height=".09"/>
  <rect class="cls-8" x="245.17" y="308.57" width=".09" height=".09"/>
  <rect class="cls-8" x="245.17" y="308.66" width=".09" height=".09"/>
  <rect class="cls-8" x="245.17" y="308.75" width=".09" height=".09"/>
  <rect class="cls-8" x="244.99" y="308.75" width=".09" height=".09"/>
  <rect class="cls-8" x="245.08" y="308.66" width=".09" height=".09"/>
  <rect class="cls-8" x="245.08" y="308.57" width=".09" height=".09"/>
  <rect class="cls-8" x="244.99" y="308.57" width=".09" height=".09"/>
  <rect class="cls-8" x="244.99" y="308.66" width=".09" height=".09"/>
</svg>